<?xml version="1.0" encoding="utf-8"?>
<!-- Generator: Adobe Illustrator 16.0.0, SVG Export Plug-In . SVG Version: 6.00 Build 0)  -->
<!DOCTYPE svg PUBLIC "-//W3C//DTD SVG 1.1//EN" "http://www.w3.org/Graphics/SVG/1.1/DTD/svg11.dtd">
<svg version="1.1" id="Calque_1" xmlns="http://www.w3.org/2000/svg" xmlns:xlink="http://www.w3.org/1999/xlink" x="0px" y="0px"
	 width="91.223px" height="118.073px" viewBox="0 0 91.223 118.073" enable-background="new 0 0 91.223 118.073"
	 xml:space="preserve">
<g>
	<g>
		<defs>
			<rect id="SVGID_1_" width="91.223" height="118.073"/>
		</defs>
		<clipPath id="SVGID_2_">
			<use xlink:href="#SVGID_1_"  overflow="visible"/>
		</clipPath>
		<path clip-path="url(#SVGID_2_)" fill="#01496B" d="M8.192,50.187c-9.277-1.498-9.8,8.58-5.896,14.062
			c4.003,5.617,9.945,6.941,16.541,6.104c1.595-0.203,3.177-0.473,4.748-0.793c-0.171-0.338-0.342-0.678-0.514-1.014
			C20.088,62.727,15.689,51.397,8.192,50.187"/>
		<path clip-path="url(#SVGID_2_)" fill="#01496B" d="M18.931,2.186C7.353-5.269,0.738,7.957,2.764,17.606
			c2.079,9.895,9.281,15.157,18.631,17.902c2.26,0.664,4.542,1.231,6.84,1.723c-0.032-0.555-0.061-1.111-0.096-1.662
			C27.547,26.004,28.288,8.211,18.931,2.186"/>
		<path clip-path="url(#SVGID_2_)" fill="#D4A200" d="M76.184,90.057c1.416-3.568-2.557-4.668-5.09-3.594
			c-2.594,1.102-3.646,3.355-3.894,6.061c-0.06,0.652-0.092,1.307-0.104,1.963c0.15-0.039,0.303-0.076,0.451-0.115
			C70.131,93.696,75.039,92.94,76.184,90.057"/>
		<path clip-path="url(#SVGID_2_)" fill="#FFFFFF" d="M11.927,16.938c-2.18-0.918-2.907,1.517-2.278,3.09
			c0.645,1.612,2.02,2.289,3.684,2.476c0.402,0.046,0.805,0.073,1.209,0.089c-0.022-0.094-0.044-0.187-0.066-0.278
			C14.092,20.713,13.689,17.681,11.927,16.938"/>
		<path clip-path="url(#SVGID_2_)" fill="#D4A200" d="M32.257,108.231c-3.001-0.811-3.518,2.488-2.422,4.426
			c1.125,1.984,3.035,2.625,5.235,2.574c0.531-0.012,1.061-0.047,1.589-0.098c-0.044-0.117-0.089-0.236-0.134-0.35
			C35.742,112.764,34.683,108.887,32.257,108.231"/>
		<path clip-path="url(#SVGID_2_)" fill="#D4A200" d="M21.718,79.588c-4.443-1.199-5.209,3.684-3.585,6.551
			c1.665,2.939,4.493,3.887,7.748,3.813c0.788-0.018,1.572-0.068,2.354-0.145c-0.066-0.174-0.133-0.35-0.2-0.521
			C26.878,86.301,25.309,80.559,21.718,79.588"/>
		<path clip-path="url(#SVGID_2_)" fill="#D4A200" d="M4.87,44.723c-1.398-0.821-2.113,0.767-1.829,1.893
			c0.293,1.153,1.165,1.737,2.279,2.017c0.269,0.067,0.54,0.123,0.813,0.17c-0.007-0.065-0.013-0.131-0.02-0.194
			C5.998,47.484,6,45.387,4.87,44.723"/>
		<path clip-path="url(#SVGID_2_)" fill="#01496B" d="M14.198,81.586c-1.985-0.635-2.431,1.559-1.756,2.889
			c0.694,1.363,1.953,1.848,3.427,1.881c0.356,0.008,0.712,0.002,1.067-0.016c-0.027-0.08-0.053-0.16-0.079-0.24
			C16.395,84.725,15.802,82.098,14.198,81.586"/>
		<path clip-path="url(#SVGID_2_)" fill="#01496B" d="M27.669,105.346c-0.991-0.029-0.906,1.033-0.422,1.551
			c0.496,0.533,1.136,0.59,1.814,0.41c0.164-0.043,0.326-0.092,0.486-0.146c-0.023-0.035-0.046-0.068-0.068-0.1
			C29.087,106.493,28.47,105.37,27.669,105.346"/>
		<path clip-path="url(#SVGID_2_)" fill="#01496B" d="M70.461,95.524c1.947,0.234,1.47,2.285,0.369,3.158
			c-1.127,0.896-2.396,0.818-3.67,0.27c-0.308-0.133-0.609-0.279-0.906-0.434c0.055-0.059,0.108-0.117,0.162-0.174
			C67.351,97.35,68.888,95.333,70.461,95.524"/>
		<path clip-path="url(#SVGID_2_)" fill="#01496B" d="M85.715,41.294c1.813-0.314,1.938,1.658,1.186,2.739
			c-0.771,1.109-1.932,1.382-3.227,1.231c-0.312-0.036-0.623-0.085-0.931-0.144c0.033-0.067,0.065-0.135,0.099-0.2
			C83.413,43.774,84.25,41.547,85.715,41.294"/>
		<path clip-path="url(#SVGID_2_)" fill="#D4A200" d="M85.565,37.416c1.121-0.664,1.7,0.609,1.476,1.516
			c-0.232,0.929-0.933,1.401-1.826,1.628c-0.217,0.055-0.435,0.101-0.653,0.139c0.005-0.053,0.01-0.104,0.015-0.156
			C84.666,39.639,84.658,37.953,85.565,37.416"/>
		<path clip-path="url(#SVGID_2_)" fill="#FFFFFF" d="M37.242,75.467c-2.694,0.445-5.152-0.006-6.88-2.252
			c-1.686-2.188-1.625-6.332,2.205-5.859c3.094,0.383,5.072,4.965,6.385,7.307c0.076,0.135,0.151,0.271,0.227,0.408
			C38.539,75.225,37.895,75.362,37.242,75.467 M42.015,111.555c1.005-1.42,2.913-1.859,4.614-2.01V26.828
			c-1.192,0.217-2.417,0.337-3.605,0.12c-2.177-0.398-4.436-0.367-6.599-0.839c-0.295-0.536-0.601-1.064-0.908-1.581
			c-0.116-0.195-0.235-0.391-0.351-0.584c-0.07-0.07-0.141-0.14-0.209-0.211c-1.716-1.813-3.048-3.995-4.582-5.96
			c-1.704-2.183-3.456-4.325-5.154-6.512c-0.649-0.836-1.301-1.669-1.957-2.498c-0.259-0.228-0.519-0.454-0.772-0.687
			c-0.768-0.711-1.525-1.437-2.316-2.122c-0.365-0.317-0.734-0.63-1.117-0.925c-0.218-0.168-0.437-0.335-0.662-0.492
			c-0.242-0.169-0.232,0.268-0.238,0.31c0.001,0.007-0.001,0.013-0.006,0.018c-0.269-0.163-0.519-0.351-0.779-0.526
			c-0.084-0.056-0.612-0.497-0.667-0.166c-0.155,0.946-0.132,1.896-0.065,2.848c0.058,0.208,0.12,0.415,0.188,0.621
			c-0.05,0.228-0.063,0.466-0.029,0.706c0.188,1.36,0.255,2.802,0.214,4.253c0.597,3.626,0.986,7.265,0.573,10.894
			c0.148,1.93,0.187,3.869,0.054,5.823c0-0.002-0.004,0.048-0.012,0.03c-0.506-1.165-1.267-2.103-2.152-2.979
			c0.051,0.366,0.094,0.732,0.13,1.101c0.564,2.042,0.974,4.272,0.397,6.255c-0.005,0.017-0.011-0.013-0.011-0.011
			c-0.098-0.495-0.194-0.991-0.291-1.487c-0.051,0.867-0.167,1.729-0.427,2.543c-0.255,0.798-0.601,1.562-0.923,2.332
			c-0.003,0.019-0.008,0.035-0.011,0.054c-0.001-0.006-0.003-0.013-0.004-0.018c-0.347,0.833-0.664,1.675-0.806,2.575
			c-0.004,0.03-0.024-0.147-0.022-0.185c0.082-1.416-0.621-2.731-0.924-4.081c-0.096-0.428-0.156-0.853-0.177-1.281
			c-0.166,2.207-1.194,4.225-1.569,6.399c-0.519,2.999,0.893,5.826,1.423,8.722c0.004,0.021,0.008,0.223,0.002,0.22
			c-0.817-0.369-1.624-0.813-2.262-1.454c-0.283-0.283-0.549-0.585-0.768-0.922c-0.091-0.14-0.289-0.713-0.227-0.254
			c0.027,0.207,0.055,0.413,0.084,0.62c0.313,2.163,0.74,4.328,1.591,6.352c0.011,0.025,0.01,0.234,0.005,0.232
			c-0.833-0.323-1.542-0.856-2.113-1.542c-0.29-0.347-0.642-0.764-0.937-1.202c-0.07,0.027-0.138,0.057-0.203,0.092
			c0.437,1.455,0.979,2.88,1.646,4.245c1.674,3.426,4.031,6.452,6.96,8.895c0.029,0.023,0.013,0.125,0.007,0.188
			c0,0.016,0.001,0.031,0.002,0.047c-0.825-0.469-1.656-0.922-2.516-1.316c0.204,0.188,0.394,0.391,0.57,0.609
			c0.037,0.033,0.072,0.066,0.109,0.098c0.003,0.02,0.008,0.041,0.011,0.061c0.668,0.883,1.134,1.957,1.471,3.025
			c0.06,0.074,0.12,0.15,0.182,0.227c-0.043-0.02-0.086-0.037-0.129-0.055c0.024,0.082,0.048,0.162,0.071,0.242
			c0.337,0.537,0.672,1.076,1.015,1.609c0.014,0.021,0.023,0.232,0.004,0.232c-0.555-0.01-1.095-0.104-1.621-0.252
			c1.72,2.637,3.622,5.156,5.396,7.76c1.503,1.49,2.99,2.994,4.417,4.557c0.024,0.025,0.011,0.127,0.007,0.189
			c0.001,0.014,0.001,0.031,0.002,0.047c-1.05-0.602-2.093-1.236-3.246-1.613c0,0.041,0.001,0.082,0.004,0.125
			c0.325,0.395,0.654,0.793,0.984,1.193c1.017,0.863,2.116,1.648,2.972,2.678c1.242,1.496,2.127,3.207,2.7,5.063
			c0.01,0.031,0.019,0.063,0.028,0.096c0.015,0.029,0.032,0.059,0.046,0.09c0.537,1.133,0.802,2.365,1.007,3.598
			c0.227,1.361,0.426,2.717,0.754,4.059c0.401,1.643,0.761,3.295,1.11,4.951c0.661,3.127,1.319,6.271,2.207,9.336
			c0.573,1.246,1.268,2.41,2.083,3.492c0.347,0.326,0.706,0.641,1.083,0.932c1.335,1.035,2.882,1.85,4.57,2.096
			c0.659,0.096,2.229,0.32,3.042-0.125c-0.657-0.826-1.4-1.604-1.95-2.441C41.677,114.215,41.139,112.792,42.015,111.555"/>
		<path clip-path="url(#SVGID_2_)" fill="#01496B" d="M54.08,75.071c0.074-0.137,0.15-0.273,0.227-0.408
			c1.313-2.342,3.29-6.924,6.385-7.307c3.83-0.473,3.891,3.672,2.205,5.859c-1.729,2.246-4.186,2.697-6.88,2.252
			C55.365,75.362,54.72,75.225,54.08,75.071 M50.826,115.364c-0.549,0.838-1.293,1.615-1.949,2.441
			c0.813,0.445,2.383,0.221,3.042,0.125c1.688-0.246,3.235-1.061,4.569-2.096c0.377-0.291,0.736-0.605,1.084-0.932
			c0.814-1.082,1.508-2.246,2.082-3.492c0.889-3.064,1.547-6.209,2.207-9.336c0.349-1.656,0.709-3.309,1.11-4.951
			c0.328-1.342,0.526-2.697,0.753-4.059c0.205-1.232,0.471-2.465,1.008-3.598c0.014-0.031,0.031-0.061,0.045-0.09
			c0.01-0.033,0.019-0.064,0.028-0.096c0.574-1.855,1.459-3.566,2.701-5.063c0.854-1.029,1.955-1.813,2.972-2.678
			c0.329-0.4,0.659-0.799,0.983-1.193c0.003-0.043,0.005-0.084,0.005-0.125c-1.152,0.377-2.197,1.012-3.246,1.613
			c0.001-0.016,0.001-0.033,0.002-0.047c-0.005-0.063-0.018-0.164,0.006-0.189c1.428-1.563,2.915-3.066,4.418-4.557
			c1.775-2.604,3.676-5.123,5.396-7.76c-0.527,0.148-1.066,0.242-1.621,0.252c-0.02,0-0.01-0.211,0.004-0.232
			c0.342-0.533,0.678-1.072,1.014-1.609c0.023-0.08,0.047-0.16,0.072-0.242c-0.043,0.018-0.086,0.035-0.129,0.055
			c0.063-0.076,0.122-0.152,0.182-0.227c0.338-1.068,0.803-2.143,1.471-3.025c0.004-0.02,0.009-0.041,0.012-0.061
			c0.036-0.031,0.072-0.064,0.109-0.098c0.176-0.219,0.365-0.422,0.569-0.609c-0.86,0.395-1.692,0.848-2.516,1.316
			c0.001-0.016,0.002-0.031,0.002-0.047c-0.007-0.063-0.022-0.164,0.006-0.188c2.931-2.443,5.286-5.469,6.961-8.895
			c0.667-1.365,1.209-2.79,1.646-4.245c-0.065-0.035-0.133-0.064-0.203-0.092c-0.295,0.438-0.647,0.855-0.937,1.202
			c-0.571,0.686-1.28,1.219-2.112,1.542c-0.006,0.002-0.006-0.207,0.004-0.232c0.851-2.023,1.279-4.188,1.591-6.352
			c0.03-0.207,0.057-0.413,0.085-0.62c0.061-0.459-0.137,0.114-0.227,0.254c-0.22,0.337-0.486,0.639-0.769,0.922
			c-0.64,0.641-1.444,1.085-2.263,1.454c-0.006,0.003-0.002-0.199,0.002-0.22c0.531-2.896,1.943-5.723,1.424-8.722
			c-0.375-2.175-1.404-4.192-1.569-6.399c-0.021,0.429-0.081,0.854-0.177,1.281c-0.303,1.35-1.006,2.665-0.924,4.081
			c0.002,0.037-0.018,0.215-0.023,0.185c-0.141-0.9-0.459-1.742-0.805-2.575c-0.002,0.005-0.003,0.012-0.004,0.018
			c-0.004-0.019-0.008-0.035-0.012-0.054c-0.322-0.771-0.668-1.534-0.922-2.332c-0.261-0.814-0.377-1.676-0.428-2.543
			c-0.097,0.496-0.193,0.992-0.291,1.487c0-0.002-0.006,0.027-0.011,0.011c-0.577-1.982-0.167-4.213,0.397-6.255
			c0.035-0.368,0.078-0.734,0.129-1.101c-0.885,0.876-1.646,1.813-2.151,2.979c-0.009,0.018-0.013-0.032-0.013-0.03
			c-0.133-1.954-0.094-3.894,0.055-5.823c-0.414-3.629-0.023-7.268,0.572-10.894c-0.041-1.451,0.025-2.893,0.215-4.253
			c0.033-0.24,0.02-0.479-0.029-0.706c0.068-0.206,0.13-0.413,0.188-0.621c0.067-0.951,0.091-1.901-0.065-2.848
			c-0.054-0.331-0.582,0.11-0.666,0.166c-0.26,0.176-0.51,0.363-0.78,0.526C75.102,4.86,75.1,4.854,75.1,4.848
			c-0.005-0.042,0.004-0.479-0.236-0.31c-0.226,0.157-0.445,0.324-0.664,0.492c-0.381,0.295-0.75,0.607-1.116,0.925
			c-0.791,0.686-1.548,1.411-2.315,2.122c-0.254,0.233-0.513,0.459-0.771,0.687c-0.656,0.829-1.309,1.662-1.959,2.498
			c-1.697,2.187-3.449,4.329-5.153,6.512c-1.534,1.965-2.865,4.147-4.581,5.96c-0.068,0.071-0.141,0.141-0.209,0.211
			c-0.115,0.193-0.234,0.389-0.352,0.584c-0.307,0.517-0.611,1.045-0.907,1.581c-2.163,0.472-4.423,0.44-6.599,0.839
			c-1.189,0.217-2.414,0.097-3.606-0.12v82.717c1.7,0.15,3.608,0.59,4.614,2.01C52.119,112.792,51.58,114.215,50.826,115.364"/>
		<path clip-path="url(#SVGID_2_)" fill="#01496B" d="M32.567,67.356c-3.83-0.473-3.891,3.67-2.205,5.861
			c1.728,2.242,4.187,2.695,6.881,2.252c0.651-0.107,1.296-0.242,1.936-0.398c-0.075-0.135-0.15-0.271-0.226-0.408
			C37.64,72.321,35.662,67.739,32.567,67.356"/>
		<path clip-path="url(#SVGID_2_)" fill="#FFFFFF" d="M60.691,67.356c3.829-0.473,3.891,3.67,2.205,5.861
			c-1.729,2.242-4.188,2.695-6.881,2.252c-0.65-0.107-1.296-0.242-1.938-0.398c0.076-0.135,0.151-0.271,0.229-0.408
			C55.619,72.321,57.597,67.739,60.691,67.356"/>
		<path clip-path="url(#SVGID_2_)" fill="#D4A200" d="M83.489,6.827c6.278-3.099,8.858,3.964,7.278,8.723
			c-1.619,4.879-5.562,7.123-10.443,7.971c-1.18,0.205-2.365,0.36-3.554,0.476c0.048-0.278,0.094-0.558,0.144-0.835
			C77.764,18.363,78.416,9.332,83.489,6.827"/>
	</g>
</g>
</svg>
