<?xml version="1.0" encoding="utf-8"?>
<!-- Generator: Adobe Illustrator 16.0.0, SVG Export Plug-In . SVG Version: 6.00 Build 0)  -->
<!DOCTYPE svg PUBLIC "-//W3C//DTD SVG 1.1//EN" "http://www.w3.org/Graphics/SVG/1.1/DTD/svg11.dtd">
<svg version="1.1" id="Calque_1" xmlns="http://www.w3.org/2000/svg" xmlns:xlink="http://www.w3.org/1999/xlink" x="0px" y="0px"
	 width="55.859px" height="49.515px" viewBox="0 0 55.859 49.515" enable-background="new 0 0 55.859 49.515" xml:space="preserve">
<g>
	<path fill="#D4A200" d="M17.012,17.266c3.303,2.032,5.077,5.737,5.182,9.548c0.039,1.399,2.213,1.403,2.174,0
		c-0.127-4.586-2.295-8.985-6.258-11.425C16.912,14.653,15.821,16.533,17.012,17.266z"/>
	<path fill="#D4A200" d="M20.825,7.733c5.707,2.891,7.069,8.9,7.564,14.791c0.118,1.386,2.29,1.397,2.173,0
		c-0.559-6.655-2.223-13.416-8.64-16.668C20.675,5.224,19.574,7.099,20.825,7.733z"/>
	<path fill="#D4A200" d="M37.486,21.758c-0.193,1.37,1.9,1.962,2.095,0.578c1.249-8.881-2.521-16.028-8.86-22.031
		c-1.016-0.962-2.555,0.572-1.535,1.537C34.884,7.24,38.619,13.69,37.486,21.758z"/>
	<path fill="#01496B" d="M54.191,46.848c-4.744,2.037-6.066-1.848-5.473-5.863c2.889-0.752,4.742-4.307,3.146-7.568
		c-0.335-0.686-1.202-0.627-1.706-0.221c-1.707,1.371-2.852,3.525-3.4,5.822c-1.182-0.242-1.672-1.396-1.832-2.611
		c2.756-1.955,4.561-5.381,2.649-9.188c-0.327-0.651-1.22-0.667-1.707-0.22c-1.81,1.664-3.382,5.357-3.325,8.552
		c-0.824,0.398-1.719,0.635-2.613,0.637c-0.508,0.002-0.912-0.127-1.236-0.342c1.42-1.188,2.227-2.918,1.777-4.93
		c-0.303-1.361-1.344-3.9-3.197-3.48c-2.185,0.492-2.002,4.105-1.945,5.781c0.018,0.539,0.092,1.02,0.197,1.463
		c-0.83-0.041-1.693-0.34-2.386-0.875c-1.072-1.508-2.536-2.838-3.849-3.945c-0.525-0.443-1.335-0.428-1.707,0.219
		c-0.676,1.182-1.732,2.16-2.689,3.117c-0.275,0.277-0.35,0.596-0.301,0.889c-5.613,0.586-11.676-3.936-13.864-8.952
		c0.165-0.171,0.278-0.402,0.291-0.702c0.063-1.437,0.999-3.043,1.758-4.217c0.022-0.035,0.036-0.07,0.054-0.105
		c0.409-0.206,0.694-0.637,0.533-1.21c-1.134-4.017-4.527-6.904-8.126-8.752c-1.001-0.514-1.907,0.601-1.572,1.389
		c-0.077,0.057-0.151,0.122-0.221,0.211c-12.811,16.35,13.051,39.551,29.273,28.842c0.549,0.268,1.352,0.135,1.619-0.615
		c0.336-0.938,0.4-1.838,0.284-2.703c0.666,0.088,1.388-0.002,2.166-0.301c1.47,1.377,3.825,1.432,6.034,0.574
		c0.338,1.152,0.988,2.133,2.049,2.777c0.529,0.32,1.055,0.533,1.572,0.662c-0.475,5.371,2.299,10.553,8.845,7.742
		C56.572,48.174,55.465,46.301,54.191,46.848z M32.482,38.143c-0.072,0.031-0.145,0.072-0.217,0.127
		c-7.457,5.428-16.373,3.025-22.797-2.813C3.503,30.035-0.576,20.375,4.982,13.283c0.166-0.211,0.241-0.439,0.248-0.664
		c2.522,1.471,4.854,3.511,5.852,6.281c-0.064,0.062-0.125,0.131-0.18,0.216C9.997,20.514,9.091,22.288,8.892,24
		c-0.423,0.194-0.7,0.624-0.482,1.197c2.555,6.725,10.658,12.61,18.02,10.768c0.885-0.223,0.945-1.186,0.506-1.738
		c0.631-0.631,1.26-1.283,1.807-1.992c0.521,0.453,1.056,0.943,1.557,1.467c0.028,0.109,0.071,0.221,0.146,0.334
		c0.436,0.66,0.915,1.264,1.438,1.773C32.273,36.545,32.507,37.324,32.482,38.143z M37.674,30.439
		c0.26-1.703,0.652,0.67,0.724,1.336c0.111,1.045-0.212,1.783-0.759,2.262C37.385,32.82,37.534,31.363,37.674,30.439z
		 M45.031,33.533c0.2-1.123,0.569-2.324,1.142-3.367C46.225,31.377,45.784,32.549,45.031,33.533z M50.35,36.318
		c-0.059,0.746-0.381,1.424-0.926,1.922C49.683,37.547,49.994,36.893,50.35,36.318z"/>
</g>
</svg>
