<?xml version="1.0" encoding="utf-8"?>
<!-- Generator: Adobe Illustrator 16.0.0, SVG Export Plug-In . SVG Version: 6.00 Build 0)  -->
<!DOCTYPE svg PUBLIC "-//W3C//DTD SVG 1.1//EN" "http://www.w3.org/Graphics/SVG/1.1/DTD/svg11.dtd">
<svg version="1.1" id="Calque_1" xmlns="http://www.w3.org/2000/svg" xmlns:xlink="http://www.w3.org/1999/xlink" x="0px" y="0px"
	 width="63.567px" height="56.678px" viewBox="0 0 63.567 56.678" enable-background="new 0 0 63.567 56.678" xml:space="preserve">
<g>
	<path fill="#D4A200" d="M25.759,30.31c-0.205,1.37,1.89,1.96,2.096,0.578c0.89-5.971-2.454-12.549-6.476-16.786
		c-0.967-1.021-2.501,0.52-1.538,1.536C23.258,19.237,26.522,25.191,25.759,30.31z"/>
	<path fill="#D4A200" d="M31.917,23.45c0.113,1.386,2.288,1.397,2.174,0c-0.602-7.352-2.962-14.109-7.298-20.093
		c-0.814-1.123-2.701-0.04-1.877,1.098C29.022,10.121,31.347,16.478,31.917,23.45z"/>
	<path fill="#D4A200" d="M32.456,1.983c6.984,3.167,7.555,12.419,8.041,19.083c0.102,1.39,2.275,1.399,2.173,0
		c-0.542-7.432-1.358-17.442-9.117-20.958C32.286-0.467,31.18,1.407,32.456,1.983z"/>
	<path fill="#01496B" d="M62.007,52.063c-6.818,5.14-9.411,0.769-9.173-3.684c0.182-0.014,0.363-0.034,0.543-0.071
		c3.229-0.673,4.408-4.064,4.982-6.935c0.151-0.75-0.317-1.289-1.047-1.375c-3.438-0.405-5.563,2.424-6.275,5.863
		c-1.087-0.532-2.029-1.563-2.668-2.429c-0.68-0.919-1.127-1.864-1.373-2.801c0.049-0.017,0.1-0.022,0.148-0.041
		c3.184-1.19,4.098-5.35,4.543-8.274c0.15-0.99-0.682-1.62-1.598-1.227c-3.616,1.555-5.349,4.427-5.406,7.535
		c-0.633-0.142-1.328-0.524-2.095-1.229c-0.901-0.83-1.437-1.729-1.671-2.62c1.938-1.525,3.309-3.78,4.463-6.014
		c0.423-0.816-0.27-1.879-1.227-1.597c-3.588,1.056-5.53,3.649-5.488,6.508c-0.107,0.061-0.222,0.114-0.334,0.17
		c-2.57-3.014-6.545-4.323-10.255-2.324c-2.132,1.148-3.9,2.95-5.899,4.302c-3.73,2.526-7.53,1.13-9.998-2.529
		c-0.952-1.409-0.863-3.091-0.28-4.845c0.041-0.05,0.081-0.1,0.116-0.162c1.516-2.634,4.065-4.787,5.025-7.736
		c0.873-2.68-0.298-4.12-2.155-6.001c-3.804-3.85-8.129-6.584-11.933-1.341c-3.862,5.327-3.524,13.295-1.343,19.118
		c2.685,7.168,8.865,12.572,15.84,15.368c5.284,2.119,11.515,0.38,16.399-2.032c2.795-1.381,6.455-4.313,6.398-7.684
		c0.242,0.323,0.504,0.644,0.805,0.956c1.031,1.074,2.427,1.792,3.877,1.93c0.373,1.617,1.16,3.231,2.365,4.7
		c0.854,1.043,2.111,2.025,3.482,2.512c-0.199,6.082,3.742,12.337,12.326,5.863C64.209,53.107,63.127,51.219,62.007,52.063z
		 M33.394,43.44c-4.497,2.617-10.393,3.922-15.366,2.158c-7.773-2.756-13.717-9.852-15.5-17.799
		C1.773,24.431,2.989,9.367,9.12,12.753c1.439,0.794,5.009,3.146,5.882,5.297c-0.083,0.096-0.155,0.208-0.206,0.344
		c-1.678,4.454-7.365,9.986-4.893,15.159c1.956,4.092,6.567,6.934,11.032,5.363c3.875-1.365,6.516-5.957,10.711-6.358
		c1.575-0.15,3.375,0.918,4.673,2.292c-0.317,0.689,0.22,1.733,1.176,1.576c0.21,0.372,0.378,0.743,0.479,1.098
		C38.724,40.16,35.219,42.38,33.394,43.44z M48.999,34.312c-0.473,1.509-1.184,2.976-2.158,3.771
		C47.058,36.656,47.792,35.346,48.999,34.312z M55.913,42.364c-0.426,1.604-1.16,3.308-2.705,3.746
		C53.696,44.368,54.629,42.896,55.913,42.364z"/>
</g>
</svg>
