<?xml version="1.0" encoding="utf-8"?>
<!-- Generator: Adobe Illustrator 16.0.0, SVG Export Plug-In . SVG Version: 6.00 Build 0)  -->
<!DOCTYPE svg PUBLIC "-//W3C//DTD SVG 1.1//EN" "http://www.w3.org/Graphics/SVG/1.1/DTD/svg11.dtd">
<svg version="1.1" id="Calque_1" xmlns="http://www.w3.org/2000/svg" xmlns:xlink="http://www.w3.org/1999/xlink" x="0px" y="0px"
	 width="60.793px" height="53.614px" viewBox="0 0 60.793 53.614" enable-background="new 0 0 60.793 53.614" xml:space="preserve">
<g>
	<path fill="#D4A200" d="M18.692,17.252c3.616,1.781,5.089,6.762,5.182,10.502c0.034,1.397,2.208,1.401,2.173,0
		c-0.11-4.474-1.946-10.256-6.258-12.378C18.537,14.758,17.435,16.633,18.692,17.252z"/>
	<path fill="#D4A200" d="M30.109,26.033c-0.199,1.371,1.896,1.961,2.096,0.578c1.195-8.242-3.499-15.031-8.212-21.333
		c-0.829-1.108-2.717-0.027-1.877,1.097C26.374,12.068,31.201,18.504,30.109,26.033z"/>
	<path fill="#D4A200" d="M37.736,24.127c-0.231,1.371,1.863,1.958,2.096,0.578c1.43-8.502-0.31-18.42-6.953-24.414
		c-1.037-0.936-2.58,0.597-1.537,1.537C37.385,7.281,39.042,16.365,37.736,24.127z"/>
	<path fill="#01496B" d="M59.209,50.172c-3.588,2.463-7.754,1.041-8.764-3.074c1.043-0.045,2.068-0.4,3.018-1.152
		c2.105-1.662,3.049-5.738,2.564-8.232c-0.639-3.281-4.515,0.365-5.252,1.391c-1.26,1.752-2.131,3.545-2.422,5.4
		c-1.974-0.855-3.572-2.773-4.596-4.785c3.326-1.727,5.781-7.623,5.646-10.535c-0.034-0.748-0.663-1.181-1.376-1.049
		c-6.34,1.18-7.99,5.299-7.184,9.398c-0.268-0.131-0.54-0.305-0.815-0.539c-0.737-0.629-1.081-1.852-1.106-3.232
		c2.646-1.398,4.414-4.916,4.285-7.917c-0.033-0.764-0.665-1.156-1.376-1.047c-3.167,0.483-4.791,3.979-4.944,7.493
		c-0.43,0.033-0.885-0.029-1.367-0.234c-0.279-0.119-0.549-0.115-0.789-0.043c-0.355-0.564-0.769-1.119-1.261-1.658
		c-4.208-4.602-8.247,1.143-10.459,4.74c-3.95-0.9-12.83-2.738-10.825-7.532c0.187-0.445,0.055-0.801-0.215-1.025
		c2.725-2.96,4.723-7.015,3.216-10.991c-1.391-3.671-6.602-6.097-10.307-4.877c-7.284,2.397-4.742,16.245-2.95,21.359
		c3.805,10.863,18.875,19.475,29.335,12.703c4.033-2.609,5.705-6.572,4.538-10.406c0.397,0.059,0.786,0.066,1.166,0.029
		c0.243,1.941,0.96,3.695,2.141,4.703c0.88,0.75,1.753,1.094,2.597,1.141c1.369,3.039,3.905,5.684,6.596,6.58
		c0.117,1.051,0.43,2.121,0.983,3.217c2.166,4.283,7.47,4.488,11.019,2.051C61.452,51.258,60.367,49.374,59.209,50.172z
		 M33.491,39.311c-2.409,5.166-9.132,6.377-14.098,5.309c-7.513-1.615-14.34-8.461-16.154-15.848
		C2.172,24.422,1.181,17.25,4.397,13.54c2.563-2.957,7.902,0.499,8.94,3.239c1.263,3.336-1.67,7.147-3.922,9.251
		c-0.666,0.623-0.25,1.483,0.403,1.753c-1.756,6.379,9.12,8.538,13.422,9.598c0.48,0.117,0.971-0.072,1.227-0.5
		c1.021-1.695,2.03-3.377,3.354-4.859c1.916-2.145,4.263-0.168,5.496,1.592C34.545,35.36,34.342,37.485,33.491,39.311z
		 M39.313,30.793c0.31-1.111,0.792-2.133,1.413-2.857C40.439,28.932,39.957,29.973,39.313,30.793z M47.107,30.608
		c-0.449,2.504-2.064,6.145-4.204,7.012c-0.011-0.037-0.023-0.072-0.034-0.107C41.78,33.823,44.011,31.604,47.107,30.608z
		 M53.723,39.043c1-0.973,0.125,0.99-0.027,1.766c-0.199,1.02-0.57,1.975-1.109,2.859c-0.557,0.912-1.381,1.264-2.276,1.273
		C50.631,42.743,52.29,40.434,53.723,39.043z"/>
</g>
</svg>
