<?xml version="1.0" encoding="utf-8"?>
<!-- Generator: Adobe Illustrator 16.0.0, SVG Export Plug-In . SVG Version: 6.00 Build 0)  -->
<!DOCTYPE svg PUBLIC "-//W3C//DTD SVG 1.1//EN" "http://www.w3.org/Graphics/SVG/1.1/DTD/svg11.dtd">
<svg version="1.1" id="Calque_1" xmlns="http://www.w3.org/2000/svg" xmlns:xlink="http://www.w3.org/1999/xlink" x="0px" y="0px"
	 width="65.558px" height="62.762px" viewBox="0 0 65.558 62.762" enable-background="new 0 0 65.558 62.762" xml:space="preserve">
<g>
	<path fill="#01496B" d="M0.076,19.585c0.843,2.149,0.695,4.186,0.348,6.419C0.3,26.8,0.872,27.455,1.702,27.282
		c5.592-1.164,10.246,0.872,13.944,4.98c2.591,2.879,5.785,6.72,6.388,10.676c0.578-0.338,1.157-0.674,1.736-1.011
		c-1.454-1.584-2.9-2.26-4.99-2.706c-0.688-0.148-1.271,0.303-1.314,1c-0.389,6.27-2.917,13.59,1.633,18.925
		c6.474,7.589,16.438,0.866,24.152,0.935c0.844,0.009,1.459-1.18,0.734-1.771c-1.637-1.338-3.605-2.928-3.904-5.179
		c-0.323-2.438,3.484-2.673,5.039-2.237c1.057,0.295,2.116,1.044,3.058,1.607c2.574,1.542,5.116,2.218,8.087,1.52
		c5.934-1.396,8.654-8.856,9.285-14.146c0.105-0.879-0.938-1.165-1.563-0.897c-2.437,1.041-4.861,1.989-7.42,2.685
		c0.426,0.241,0.852,0.482,1.277,0.725c-1.184-4.98,0.253-9.933,1.395-14.783c0.191-0.811-0.496-1.426-1.277-1.278
		c-3.064,0.581-5.314,2.907-8.365,3.485c0.438,0.334,0.877,0.668,1.314,1.002c0.48-4.876,5.168-5.846,7.517-9.554
		c2.787-4.401,0.619-10.754,0.5-15.541c-0.028-1.117-1.333-1.306-1.936-0.524c-3.503,4.545-12.191,3.052-16.938,1.756
		c-4.451-1.214-5.213-6.582-10.095-6.939c-2.718-0.199-2.993,3.183-3.135,5.072c-0.198,2.614-0.654,4.699-3.005,6.172
		c-2.601,1.63-6.591,1.938-9.321,0.538c-0.733-0.376-1.876,0.254-1.525,1.173c0.514,1.349,2.004,4.362,0.907,5.736
		c-0.711,0.892-3.019,0.383-3.932,0.259c-2.839-0.384-5.642-1.028-8.522-0.688c-0.563,0.066-1.037,0.422-1.039,1.039
		c-0.007,2.754,0.764,4.965,3.309,6.267c2.912,1.491,6.177,1.232,8.497,3.878c0.885,1.009,2.348-0.466,1.469-1.469
		c-3.398-3.875-11.214-2.44-11.198-8.676c-0.346,0.346-0.692,0.693-1.039,1.039c4.087-0.482,8.08,1.325,12.129,0.739
		c4.253-0.616,2.34-6.264,1.42-8.676c-0.509,0.391-1.017,0.782-1.526,1.173c3.672,1.884,8.99,1.438,12.289-1.114
		c1.721-1.332,2.548-2.98,2.925-5.1c0.321-1.807-0.415-5.735,2.327-5.119c2.551,0.573,3.458,4.042,5.542,5.364
		c2.5,1.584,5.623,2.096,8.525,2.34c4.936,0.416,10.426,0.571,13.729-3.715c-0.646-0.175-1.291-0.35-1.936-0.524
		c0.135,5.379,2.663,12.313-1.912,16.485c-3.098,2.824-5.65,4.01-6.104,8.61c-0.072,0.721,0.712,1.115,1.314,1.001
		c3.064-0.581,5.314-2.907,8.365-3.485c-0.427-0.425-0.853-0.852-1.278-1.278c-1.233,5.238-2.671,10.52-1.395,15.889
		c0.132,0.552,0.746,0.869,1.278,0.725c2.729-0.74,5.319-1.783,7.916-2.893c-0.521-0.299-1.043-0.599-1.563-0.896
		c-0.538,4.517-2.46,9.258-6.535,11.648c-4.358,2.558-8.166-1.766-12.146-2.879c-2.519-0.705-5.941,0.848-6.66,3.458
		c-0.857,3.118,2.281,5.958,4.385,7.676c0.244-0.591,0.489-1.182,0.734-1.772c-7.564-0.068-15.162,5.703-22.096,0.236
		c-4.956-3.907-1.936-12.801-1.612-18.02c-0.438,0.334-0.876,0.668-1.315,1.002c1.632,0.35,2.911,0.906,4.073,2.172
		c0.775,0.846,1.878-0.072,1.736-1.01c-0.731-4.805-4.762-9.31-7.968-12.731c-3.869-4.13-9.449-5.514-14.92-4.375
		c0.426,0.425,0.852,0.852,1.278,1.278c0.401-2.58,0.623-5.048-0.348-7.524C1.596,17.801-0.414,18.336,0.076,19.585L0.076,19.585z"
		/>
	<path fill="#D4A200" d="M19.898,30.107c-0.049,0.003-0.098-0.003-0.144-0.02c0.102,0.064,0.126,0.081,0.075,0.049
		c0.135,0.112,0.256,0.241,0.38,0.364c0.601,0.601,1.853,0.199,1.773-0.734c-0.027-0.311-0.083-0.527-0.206-0.81
		c-0.042-0.097-0.087-0.191-0.134-0.286c-0.1-0.199-0.015-0.021-0.009,0.049c-0.044-0.525-0.439-1.089-1.039-1.038
		c-0.617,0.052-1.222,0.395-1.521,0.957c-0.2,0.377-0.225,0.834-0.004,1.211c0.251,0.43,0.707,0.583,1.177,0.606
		c0.566,0.027,1.038-0.493,1.038-1.039c0-0.587-0.473-1.012-1.038-1.039c0.171,0.017,0.323,0.087,0.454,0.212
		c0.089,0.153,0.179,0.306,0.267,0.459c0.046,0.212,0.021,0.409-0.075,0.591c-0.115,0.217-0.083,0.103,0.002,0.024
		c-0.124,0.09-0.139,0.105-0.047,0.044c0.151-0.096-0.213,0.047-0.253,0.05c-0.346-0.346-0.692-0.692-1.039-1.039
		c0.026,0.311,0.083,0.527,0.206,0.81c0.042,0.097,0.087,0.19,0.134,0.284c0.1,0.2,0.015,0.022,0.009-0.048
		c0.591-0.245,1.182-0.49,1.773-0.734c-0.518-0.518-1.026-0.935-1.78-1.001c-0.564-0.05-1.039,0.51-1.039,1.039
		C18.86,29.672,19.334,30.057,19.898,30.107L19.898,30.107z"/>
</g>
</svg>
