<?xml version="1.0" encoding="utf-8"?>
<!-- Generator: Adobe Illustrator 16.0.0, SVG Export Plug-In . SVG Version: 6.00 Build 0)  -->
<!DOCTYPE svg PUBLIC "-//W3C//DTD SVG 1.1//EN" "http://www.w3.org/Graphics/SVG/1.1/DTD/svg11.dtd">
<svg version="1.1" id="Calque_1" xmlns="http://www.w3.org/2000/svg" xmlns:xlink="http://www.w3.org/1999/xlink" x="0px" y="0px"
	 width="62.032px" height="58.853px" viewBox="0 0 62.032 58.853" enable-background="new 0 0 62.032 58.853" xml:space="preserve">
<g>
	<path fill="#01496B" d="M2.442,19.815c0.958-0.008,1.783-0.156,2.716-0.386c2.656-0.65,5.192-0.176,7.812,0.349
		c0.503,0.101,1.188-0.138,1.278-0.726c0.422-2.755-0.788-4.898-1.008-7.596c-0.438,0.335-0.876,0.668-1.315,1.002
		c5.153,1.147,11.675,2.792,14.592-3.092c1.28-2.581,1.66-7.942,5.791-7.144c2.845,0.549,5.583,3.143,8.11,4.482
		c3.27,1.732,6.982,1.912,10.543,2.616c1.156,0.229,2.32,0.428,3.448,0.774c1.007,0.309,0.674,2.184,0.671,2.946
		c-0.01,3.662-1.094,6.19-3.008,9.228c-1.59,2.525-2.646,5.016-2.919,8.009c-0.068,0.744,0.95,1.35,1.563,0.895
		c0.892-0.66,1.897-1.082,2.788-1.742c-0.42-0.055-0.839-0.109-1.258-0.163c3.049,2.821,1.311,19.647,9.484,13.245
		c-0.578-0.336-1.157-0.672-1.736-1.01c-0.75,3.271-1.922,6.51-4.764,8.529c-3.619,2.57-6.721,0.121-10.395-0.254
		c-4.887-0.502-8.437,4.943-4.789,8.768c0.244-0.592,0.489-1.182,0.734-1.773c-6.134-0.307-12.469,0.615-18.495-0.861
		c-6.576-1.609-3.727-12.07-2.81-16.645c-0.579,0.152-1.158,0.305-1.736,0.457c0.788,0.627,1.669,1.09,2.439,1.744
		c1.02,0.867,2.352-0.451,1.469-1.469c-2.005-2.311-1.562-7.139-4.296-8.771c-1.586-0.947-3.429-1.053-3.759-3.187
		c-0.177-1.147-0.91-2.251-1.915-2.843c-1.379-0.813-3.243-0.964-4.775-1.325c-1.914-0.45-6.774-1.278-3.59-3.504
		c1.089-0.761,0.052-2.563-1.049-1.794c-5.409,3.781,0.045,6.309,4.086,7.302c1.158,0.284,2.327,0.519,3.481,0.82
		c2.134,0.559,1.401,3.039,2.678,4.314c1.878,1.879,4.088,1.381,4.974,4.68c0.613,2.283,1.113,3.957,2.694,5.777
		c0.489-0.49,0.979-0.98,1.469-1.469c-0.781-0.664-1.642-1.109-2.44-1.742c-0.556-0.441-1.566-0.389-1.736,0.457
		c-1.076,5.369-3.19,13.248,1.199,17.682c2.057,2.08,6.013,2.135,8.717,2.314c4.458,0.301,8.932-0.084,13.393,0.141
		c0.938,0.047,1.33-1.148,0.734-1.773c-2.807-2.943,1.041-5.77,4-5.018c1.261,0.32,2.424,0.895,3.703,1.178
		c1.766,0.391,4.104,0.049,5.732-0.715c4.198-1.967,6.06-6.162,7.047-10.467c0.248-1.084-0.94-1.635-1.736-1.01
		c-3.295,2.58-3.703-3.68-4.072-5.828c-0.408-2.369-0.584-5.668-2.476-7.418c-0.315-0.292-0.878-0.443-1.258-0.162
		c-0.892,0.661-1.897,1.083-2.788,1.743c0.521,0.299,1.041,0.598,1.563,0.898c0.349-3.819,2.561-6.583,4.352-9.816
		c1.447-2.609,1.57-5.251,1.578-8.164c0.016-5.552-6.006-5.086-10.352-5.765c-4.188-0.654-7.387-2.84-10.926-4.962
		c-1.763-1.058-4.328-2.232-6.348-1.13c-2.285,1.246-3.401,3.553-4.166,5.945c-2.085,6.528-7.458,5.277-12.893,4.068
		c-0.612-0.137-1.373,0.294-1.314,1c0.195,2.391,1.456,4.604,1.083,7.044c0.425-0.242,0.852-0.483,1.277-0.726
		c-1.795-0.359-3.55-0.703-5.381-0.766c-1.946-0.066-3.777,0.712-5.699,0.729C1.104,17.75,1.102,19.827,2.442,19.815L2.442,19.815z"
		/>
	<path fill="#D4A200" d="M18.475,29.575c-0.371-0.047-0.667-0.25-0.762-0.402c0.02,0.031,0.034,0.065,0.05,0.1
		c-0.215-0.461,0.112,0.271,0.116,0.281c0.124,0.285,0.325,0.549,0.603,0.699c1.158,0.635,1.902-0.666,2.284-1.542
		c-0.299,0.172-0.598,0.344-0.897,0.515c0.58-0.04,1.084-0.433,1.084-1.054c0-0.449-0.281-0.783-0.646-1.002
		c-0.18-0.107-0.373-0.195-0.56-0.289c-0.091-0.046-0.182-0.094-0.271-0.143c-0.208-0.112-0.015-0.021,0.038,0.044
		c0.088,0.152,0.178,0.305,0.267,0.458c-0.001-0.003-0.002-0.007-0.003-0.012c-0.035,0.268-0.07,0.534-0.105,0.802
		c0.002-0.003,0.003-0.006,0.006-0.009c-0.207,0.159-0.414,0.317-0.621,0.477c-0.078,0.011-0.157,0.021-0.235,0.03
		c-0.334-0.438-0.667-0.876-1.002-1.314c-0.104,0.515-0.283,1.055-0.298,1.584c-0.012,0.374,0.181,0.716,0.298,1.06
		c0.288,0.846,1.411,1.043,1.898,0.248c0.355-0.58,0.478-1.248,0.278-1.905c-0.075-0.247-0.2-0.486-0.337-0.704
		c-0.053-0.084-0.11-0.165-0.165-0.247c-0.153-0.233,0.006,0.133,0.018,0.24c-0.058-0.563-0.428-1.039-1.039-1.039
		c-0.522,0-1.097,0.475-1.039,1.039c0.043,0.418,0.207,0.714,0.43,1.055c0.046,0.07,0.087,0.142,0.128,0.215
		c0.133,0.242-0.056-0.192,0.026,0.08c0.078,0.256,0.007-0.187,0.001,0.096c0.003-0.135-0.059,0.061-0.095,0.122
		c0.633,0.083,1.265,0.165,1.898,0.248c-0.054-0.162-0.114-0.321-0.178-0.479c-0.021-0.051-0.04-0.101-0.057-0.151
		c-0.068-0.201,0.016,0.275,0.011,0.123c-0.002-0.083,0.037-0.239-0.021,0.12c0.013-0.079,0.032-0.159,0.049-0.237
		c0.067-0.304,0.135-0.608,0.196-0.915c0.125-0.616-0.287-1.364-1.001-1.314c-0.58,0.041-1.085,0.433-1.085,1.055
		c0,0.448,0.281,0.782,0.646,1.002c0.18,0.107,0.373,0.194,0.56,0.289c0.091,0.046,0.182,0.093,0.272,0.142
		c0.208,0.113,0.015,0.021-0.039-0.043c-0.088-0.153-0.178-0.307-0.267-0.459c0.001,0.004,0.003,0.008,0.003,0.012
		c0.035-0.267,0.07-0.533,0.105-0.801c-0.002,0.003-0.003,0.005-0.006,0.008c0.207-0.158,0.414-0.317,0.621-0.477
		c0.078-0.01,0.157-0.021,0.235-0.029c-0.337,0.022-0.748,0.173-0.896,0.514c-0.092,0.211-0.188,0.419-0.295,0.622
		c-0.044,0.086-0.095,0.17-0.147,0.251c-0.142,0.222,0.138-0.149-0.006,0c0.298-0.309,0.848-0.248,1.143,0.031
		c0.237,0.225,0.088,0.119,0.023-0.023c0.159,0.349,0.038,0.087,0.004,0.004c-0.058-0.142-0.113-0.289-0.188-0.424
		c-0.224-0.403-0.591-0.572-1.031-0.627c-0.563-0.07-1.039,0.525-1.039,1.038C17.437,29.155,17.913,29.504,18.475,29.575
		L18.475,29.575z"/>
</g>
</svg>
