<?xml version="1.0" encoding="utf-8"?>
<!-- Generator: Adobe Illustrator 16.0.0, SVG Export Plug-In . SVG Version: 6.00 Build 0)  -->
<!DOCTYPE svg PUBLIC "-//W3C//DTD SVG 1.1//EN" "http://www.w3.org/Graphics/SVG/1.1/DTD/svg11.dtd">
<svg version="1.1" id="Calque_1" xmlns="http://www.w3.org/2000/svg" xmlns:xlink="http://www.w3.org/1999/xlink" x="0px" y="0px"
	 width="64.213px" height="60.726px" viewBox="0 0 64.213 60.726" enable-background="new 0 0 64.213 60.726" xml:space="preserve">
<g>
	<path fill="#01496B" d="M1.122,19.506c-0.205,2.081-0.878,4.335,0.266,6.242c1.157,1.929,3.706,2.439,5.728,2.188
		c2.301-0.286,3.826,0.366,4.565,2.645c0.423,1.302,1.632,2.251,2.635,3.088c2.931,2.448,5.354,3.566,6.013,7.722
		c0.425-0.426,0.852-0.851,1.277-1.276c-0.919-0.381-1.869-0.666-2.788-1.047c-0.654-0.27-1.292,0.396-1.315,1.002
		c-0.226,6.054-4.624,14.889,2.051,18.995c2.543,1.565,6.105,1.454,8.962,1.392c3.182-0.069,6.195-0.088,9.368,0.155
		c2.063,0.159,3.948,0.429,5.347-1.394c1.105-1.44,0.346-2.652-0.997-3.54c-0.915-0.605-2.965-1.146-2.747-2.606
		c0.244-1.632,2.574-2.041,3.861-2.184c2.821-0.313,7.111,0.471,8.453,3.298c0.194,0.409,0.758,0.604,1.174,0.478
		c5.318-1.611,11.627-7.59,11.219-13.549c-0.045-0.638-0.636-1.226-1.315-1c-2.073,0.686-4.128,1.318-6.273,1.741
		c0.426,0.242,0.853,0.484,1.277,0.726c-0.665-4.884-1.007-9.797-1.357-14.711c-0.042-0.6-0.646-1.276-1.314-1.001
		c-2.34,0.964-4.21,2.354-6.035,4.101c0.591,0.245,1.183,0.489,1.773,0.734c-0.208-3.536,1.153-10.277,6.005-9.106
		c0.613,0.148,1.367-0.304,1.314-1.001c-0.361-4.688-0.742-9.354-2.128-13.869c-0.167-0.545-0.72-0.874-1.278-0.726
		C47.58,8.933,38.68,7.679,34.774,0.509c-0.227-0.417-0.729-0.585-1.173-0.478c-2.485,0.601-4.872,0.612-7.392,0.311
		c-0.515-0.061-1.104,0.521-1.038,1.039c0.371,2.963,0.466,6.372-2.143,8.383c-2.53,1.949-6.511,1.499-9.438,1.072
		c-0.781-0.115-1.471,0.44-1.277,1.277c0.216,0.938,1.977,5.702,0.979,6.456c-1.557,1.177-5.982-0.17-7.786-0.226
		c-4.853-0.152-6.823,2.53-4.591,6.914c0.608,1.194,2.4,0.143,1.794-1.048c-2.395-4.704,3.075-3.9,5.987-3.55
		c1.619,0.194,3.794,0.6,5.347-0.152c3.044-1.476,0.797-6.669,0.272-8.946c-0.425,0.426-0.852,0.852-1.277,1.277
		c3.717,0.543,7.729,0.811,11.038-1.28c3.404-2.152,3.618-6.611,3.172-10.177c-0.346,0.346-0.692,0.692-1.039,1.039
		c2.709,0.324,5.292,0.255,7.945-0.385c-0.392-0.159-0.782-0.318-1.173-0.478c4.351,7.989,14.257,9.616,22.434,7.448
		c-0.426-0.242-0.852-0.483-1.277-0.726c1.33,4.339,1.707,8.814,2.053,13.317c0.439-0.334,0.877-0.667,1.315-1.001
		c-6.36-1.536-8.935,6.015-8.634,11.109c0.053,0.897,1.094,1.384,1.772,0.734c1.536-1.471,3.124-2.746,5.119-3.566
		c-0.438-0.334-0.877-0.668-1.315-1.002c0.363,5.102,0.74,10.195,1.432,15.263c0.08,0.59,0.781,0.823,1.277,0.726
		c2.145-0.424,4.201-1.056,6.274-1.742c-0.438-0.334-0.876-0.668-1.315-1.002c0.343,4.996-5.231,10.193-9.693,11.547
		c0.391,0.158,0.781,0.316,1.174,0.477c-1.936-4.074-7.863-4.798-11.791-4.109c-3.27,0.572-6.435,4.672-2.846,7.121
		c0.87,0.595,1.895,0.997,2.708,1.67c0.946,0.782-2.292,0.805-2.305,0.805c-0.755-0.023-1.509-0.093-2.262-0.149
		c-2.901-0.223-5.674-0.199-8.585-0.097c-4.614,0.165-9.994-0.144-10.542-5.816c-0.405-4.176,1.451-8.326,1.606-12.492
		c-0.438,0.334-0.876,0.667-1.315,1.002c0.919,0.38,1.869,0.665,2.788,1.045c0.817,0.338,1.385-0.603,1.277-1.277
		c-0.413-2.611-1.307-4.594-3.338-6.311c-0.855-0.723-1.826-1.323-2.737-1.973c-1.833-1.307-2.198-2.668-3.167-4.496
		c-1.103-2.082-2.844-2.624-5.078-2.347C6.253,25.931,3.619,26.2,2.864,24.05c-0.436-1.242,0.211-3.281,0.336-4.544
		C3.331,18.173,1.252,18.185,1.122,19.506L1.122,19.506z"/>
	<path fill="#D4A200" d="M18.691,29.44c-0.05-0.125-0.058-0.133-0.025-0.026c-0.015-0.156-0.018-0.177-0.01-0.063
		c0.006,0.083,0,0.167-0.007,0.249c-0.021,0.278-0.001,0.551,0.145,0.799c0.263,0.449,0.745,0.583,1.232,0.505
		c0.276-0.045,0.553-0.243,0.782-0.394c0.865-0.569,0.53-1.896-0.524-1.936c-0.269-0.01,0.204,0.039-0.014,0.002
		c-0.095-0.018-0.19-0.037-0.286-0.057c-0.232-0.046-0.47-0.091-0.708-0.1c-0.402-0.016-0.8,0.202-1.003,0.548
		c-0.28,0.479-0.117,0.998,0.231,1.38c0.235,0.258,0.677,0.38,1.01,0.268c0.608-0.206,1.206-0.423,1.42-1.091
		c0.181-0.565-0.211-1.018-0.451-1.48c-0.26-0.503-0.952-0.648-1.421-0.373c-0.506,0.296-0.634,0.918-0.373,1.421
		c0.094,0.182,0.212,0.349,0.31,0.527c-0.071-0.123-0.106-0.255-0.103-0.398c0.086-0.21,0.172-0.42,0.257-0.63
		c0.165-0.116,0.2-0.146,0.105-0.087c-0.183,0.108,0.248-0.093-0.007,0.007c-0.095,0.036-0.192,0.067-0.29,0.101
		c0.337,0.09,0.674,0.178,1.01,0.268c0.08,0.204,0.158,0.409,0.237,0.613c-0.102,0.245-0.203,0.489-0.304,0.734
		c-0.661,0.178-0.855,0.269-0.581,0.271c0.105,0.011,0.071,0.006-0.101-0.014c0.094,0.014,0.187,0.034,0.28,0.053
		c0.257,0.051,0.518,0.105,0.78,0.115c-0.174-0.646-0.35-1.291-0.524-1.936c-0.092,0.061-0.186,0.12-0.28,0.178
		c-0.042,0.025-0.085,0.049-0.129,0.07c0.115-0.068,0.239-0.103,0.373-0.104c0.174,0.047,0.35,0.094,0.524,0.142
		c0.059,0.046,0.118,0.091,0.176,0.136c0.089,0.153,0.179,0.306,0.267,0.459c-0.037-0.091,0.009,0.343,0.026,0.104
		c0.006-0.095,0.016-0.189,0.017-0.285c0.008-0.37-0.102-0.693-0.25-1.025c-0.232-0.517-0.973-0.635-1.421-0.372
		C18.537,28.327,18.459,28.924,18.691,29.44L18.691,29.44z"/>
</g>
</svg>
