<?xml version="1.0" encoding="utf-8"?>
<!-- Generator: Adobe Illustrator 16.0.0, SVG Export Plug-In . SVG Version: 6.00 Build 0)  -->
<!DOCTYPE svg PUBLIC "-//W3C//DTD SVG 1.1//EN" "http://www.w3.org/Graphics/SVG/1.1/DTD/svg11.dtd">
<svg version="1.1" id="Calque_1" xmlns="http://www.w3.org/2000/svg" xmlns:xlink="http://www.w3.org/1999/xlink" x="0px" y="0px"
	 width="86px" height="402px" viewBox="0 0 86 402" enable-background="new 0 0 86 402" xml:space="preserve">
<path fill="#03496B" d="M72.516,45.074c-1.857-14.686-16.424-23.629-30.158-24.373c-13.523-0.731-25.621,7.443-29.131,20.588
	c-3.682,13.789,6.754,34.071,20.99,37.875c0.289,1.359,2.514,1.744,2.904,0.113c1.68-7.015,0.258-14.387,0.354-21.512
	c0.059-4.356,1.041-7.896,3.834-11.242c3.762-4.507,9.445-5.036,12.77,0.304c2.627,4.217-3.424,4.891-6.148,6.388
	c-3.254,1.789-3.893,5.054-3.131,8.444c0.176,0.777,1.092,1.282,1.846,1.047c5.342-1.67,2.758,4.895-1.908,4.604
	c-0.828-0.051-1.486,0.723-1.5,1.5c-0.057,3.219-0.18,6.559-1.262,9.617c-0.145,0.196-0.221,0.431-0.232,0.679
	c-0.271,0.869,0.309,1.474,1.041,1.632c0.246,0.098,0.527,0.141,0.84,0.09C60.094,78.128,74.689,62.264,72.516,45.074z
	 M45.418,77.377c0.553-2.306,0.719-4.742,0.785-7.105c7.482-0.835,8.76-11.772,1.33-10.834c-0.041-4.786,6.395-4.418,9.326-7.506
	c3.682-3.875-2.26-9.995-5.504-11.549c-6.242-2.99-12.547,3.457-15.148,8.417c-4.281,8.167-0.469,18.438-1.578,27.367
	c-12.746-3.759-21.268-21.845-18.51-34.081c2.674-11.863,13.678-18.34,25.246-18.408c12.592-0.074,24.854,7.967,27.949,20.433
	C73.074,59.25,59.334,73.721,45.418,77.377z"/>
<path fill="#03496B" d="M73.342,147.872c-1.535-13.994-12.256-25.764-26.377-26.951c-13.309-1.121-25.76,7.869-31.084,19.637
	c-7.445,16.461,3.723,32.094,17.934,40.133c0.986,0.559,1.908-0.098,2.17-0.93c0.836,0.219,1.961-0.24,2.102-1.371
	c1.354-10.879-3.049-40.138,16.873-33.785c4.199,1.34,7.072,7.65,2.598,10.596c-1.785,1.176-4.994,0.195-6.967,0.051
	c-5.014-0.369-5.168,4.168-4.377,7.934c0.176,0.84,1.084,1.201,1.844,1.047c2.789-0.564,5.451,2.252,1.633,2.66
	c-0.895,0.096-1.914,0.199-2.588,0.875c-2.496,2.494-2.324,8.033-3.406,11.23c-0.482,1.426,1.15,2.209,2.195,1.643
	c0.281,0.568,0.873,0.955,1.664,0.707C62.492,176.651,75.172,164.581,73.342,147.872z M46.924,178.397
	c0.586-2.998,1.209-8.34,3.475-8.582c1.885-0.201,3.303-0.746,4.379-2.336c2.834-4.184-2.369-6.17-5.91-6.256
	c-0.279-1.537-0.281-3.01,1.723-2.973c1.422,0.025,2.84,0.318,4.26,0.398c2.676,0.15,4.791-0.852,6.4-2.943
	c4.855-6.316-1.404-13.093-7.445-14.537c-21.189-5.07-17.352,24.805-18.676,36.814c-13.342-7.633-23.133-21.598-16.176-36.975
	c4.725-10.442,15.619-17.229,26.996-17.135c13.033,0.107,21.738,11.148,24.23,23.045C73.42,162.388,60.307,174.13,46.924,178.397z"
	/>
<path fill="#03496B" d="M72.758,246.651c-0.559-14.293-11.785-25.092-25.703-26.49c-15.063-1.512-27.533,9.957-30.975,23.947
	c-3.633,14.766,4.025,29.275,18.256,34.311c0.867,1.258,3.217,0.463,2.68-1.221c-2.051-6.441-0.914-13.939,0.68-20.344
	c1.668-6.703,6.854-18.225,15.891-14.26c1.598,0.701,5.412,5.051,3.018,6.664c-1.277,0.861-2.742,1.363-3.969,2.324
	c-2.115,1.658-4.83,2.525-6.404,4.783c-1.021,1.465-0.697,4.982,0.125,6.385c0.219,0.375,0.73,0.84,1.168,0.926
	c0.277,0.063,0.559,0.109,0.844,0.141c2.328,0.051,0.535,2.473-0.822,2.268c-0.947-0.145-1.896,0.385-1.898,1.445
	c-0.002,3.535-0.047,7.053-0.406,10.566c-0.037,0.004-0.07,0.012-0.107,0.014c-1.908,0.178-1.926,3.18,0,3
	C62.125,279.536,73.4,263.065,72.758,246.651z M48.287,277.591c0.266-2.828,0.338-5.658,0.352-8.5
	c2.498-0.072,5.041-1.084,5.041-4.078c0-1.406-0.811-2.93-2.029-3.643c-2.025-1.188-3.469,0.436-2.926-3.209
	c0.229-1.543,5.48-4.063,6.732-4.867c1.342-0.861,3.555-1.426,4.385-2.939c1.732-3.164-0.988-7.945-3.758-9.719
	c-8.328-5.336-16.086,2.16-19.279,9.494c-3.102,7.121-4.936,16.656-3.463,24.693c-25.293-10.916-16.027-51.412,11.674-51.752
	c12.143-0.148,22.014,8.781,24.369,20.389C72.303,257.835,62.564,274.249,48.287,277.591z"/>
<path fill="#03496B" d="M71.219,342.778c-3.855-13.531-15.959-23.357-29.43-22.203c-12.693,1.086-22.838,11.992-25.807,24.459
	c-4.152,17.439,9.037,30.998,23.775,36.578c1.023,0.389,1.775-0.41,1.877-1.271c0.822,0.076,1.799-0.561,1.736-1.697
	c-0.607-10.939-9.793-39.033,10.018-36.059c4.176,0.629,7.965,6.373,4.27,10.01c-1.473,1.453-4.658,1.016-6.535,1.197
	c-4.773,0.461-4.135,4.957-2.742,8.535c0.311,0.799,1.225,1.006,1.914,0.729c2.521-1.016,5.506,1.32,1.992,2.35
	c-0.824,0.242-1.764,0.514-2.281,1.289c-1.912,2.867-0.795,8.295-1.26,11.623c-0.207,1.482,1.461,1.986,2.346,1.256
	c0.361,0.514,0.986,0.797,1.686,0.424C65.998,372.913,75.824,358.935,71.219,342.778z M51.676,377.196
	c0.033-3.051-0.305-8.414,1.781-9.027c1.734-0.508,2.973-1.277,3.709-3.021c1.941-4.588-3.291-5.688-6.631-5.189
	c-0.527-1.467-0.783-2.916,1.105-3.211c1.34-0.209,2.723-0.152,4.07-0.309c2.539-0.291,4.354-1.627,5.502-3.953
	c3.473-7.021-3.58-12.664-9.502-13.092c-20.779-1.506-12.016,27.289-11.188,39.338c-13.85-5.322-25.457-17.465-21.576-33.758
	c2.633-11.063,11.695-19.541,22.398-21.322c12.262-2.041,22.344,7.402,26.738,18.709C73.799,357.063,63.51,370.788,51.676,377.196z"
	/>
</svg>
