<?xml version="1.0" encoding="utf-8"?>
<!-- Generator: Adobe Illustrator 16.0.0, SVG Export Plug-In . SVG Version: 6.00 Build 0)  -->
<!DOCTYPE svg PUBLIC "-//W3C//DTD SVG 1.1//EN" "http://www.w3.org/Graphics/SVG/1.1/DTD/svg11.dtd">
<svg version="1.1" id="Calque_1" xmlns="http://www.w3.org/2000/svg" xmlns:xlink="http://www.w3.org/1999/xlink" x="0px" y="0px"
	 width="86px" height="402px" viewBox="0 0 86 402" enable-background="new 0 0 86 402" xml:space="preserve">
<g>
	<path fill="#D3A205" d="M31.077,43.26c3.303,2.033,5.077,5.738,5.182,9.548c0.039,1.399,2.212,1.403,2.173,0
		c-0.126-4.586-2.294-8.986-6.257-11.425C30.977,40.647,29.886,42.528,31.077,43.26z"/>
	<path fill="#D3A205" d="M34.89,33.727c5.707,2.891,7.07,8.9,7.564,14.791c0.118,1.387,2.291,1.398,2.173,0
		c-0.559-6.654-2.223-13.416-8.641-16.667C34.74,31.219,33.639,33.094,34.89,33.727z"/>
	<path fill="#D3A205" d="M51.551,47.752c-0.193,1.371,1.901,1.963,2.095,0.578c1.249-8.88-2.521-16.027-8.86-22.031
		c-1.016-0.961-2.556,0.572-1.536,1.537C48.949,33.235,52.684,39.684,51.551,47.752z"/>
	<path fill="#03496B" d="M68.256,72.843c-4.744,2.037-6.066-1.848-5.472-5.863c2.888-0.752,4.741-4.307,3.145-7.568
		c-0.335-0.686-1.202-0.627-1.706-0.221c-1.707,1.371-2.852,3.525-3.4,5.822c-1.183-0.242-1.672-1.396-1.832-2.611
		c2.755-1.955,4.56-5.381,2.649-9.188c-0.328-0.65-1.22-0.668-1.707-0.221c-1.81,1.665-3.382,5.358-3.326,8.554
		c-0.824,0.398-1.718,0.635-2.613,0.637c-0.508,0.002-0.912-0.127-1.236-0.342c1.419-1.188,2.227-2.918,1.778-4.93
		c-0.304-1.361-1.345-3.901-3.197-3.481c-2.185,0.493-2.002,4.106-1.946,5.782c0.018,0.539,0.091,1.02,0.198,1.463
		c-0.83-0.041-1.694-0.34-2.386-0.875c-1.072-1.508-2.536-2.838-3.848-3.945c-0.525-0.443-1.335-0.428-1.707,0.219
		c-0.676,1.182-1.733,2.16-2.689,3.117c-0.275,0.277-0.351,0.596-0.301,0.889c-5.613,0.586-11.676-3.936-13.865-8.952
		c0.165-0.172,0.278-0.402,0.291-0.703c0.063-1.436,0.999-3.043,1.758-4.216c0.022-0.035,0.036-0.07,0.054-0.105
		c0.409-0.205,0.694-0.637,0.533-1.209c-1.134-4.018-4.527-6.904-8.126-8.752c-1.001-0.514-1.907,0.6-1.572,1.389
		c-0.077,0.057-0.151,0.121-0.221,0.211C4.7,54.091,30.562,77.292,46.784,66.583c0.549,0.268,1.351,0.135,1.619-0.615
		c0.335-0.938,0.4-1.838,0.284-2.703c0.666,0.088,1.388-0.002,2.166-0.301c1.47,1.377,3.825,1.432,6.034,0.574
		c0.338,1.152,0.989,2.133,2.049,2.777c0.529,0.32,1.055,0.533,1.572,0.662c-0.474,5.371,2.298,10.553,8.845,7.742
		C70.638,74.169,69.529,72.296,68.256,72.843z M46.547,64.138c-0.072,0.031-0.145,0.072-0.217,0.127
		c-7.456,5.428-16.372,3.025-22.797-2.813c-5.965-5.422-10.044-15.083-4.486-22.174c0.166-0.211,0.241-0.439,0.248-0.664
		c2.522,1.471,4.854,3.51,5.852,6.281c-0.064,0.061-0.125,0.131-0.18,0.215c-0.905,1.398-1.811,3.171-2.01,4.884
		c-0.423,0.193-0.7,0.623-0.482,1.197c2.555,6.726,10.658,12.61,18.02,10.769c0.885-0.223,0.946-1.186,0.506-1.738
		c0.63-0.631,1.26-1.283,1.806-1.992c0.521,0.453,1.056,0.943,1.557,1.467c0.029,0.109,0.072,0.221,0.146,0.334
		c0.436,0.66,0.915,1.264,1.438,1.773C46.338,62.54,46.572,63.319,46.547,64.138z M51.739,56.435c0.26-1.703,0.652,0.67,0.723,1.336
		c0.111,1.045-0.212,1.783-0.759,2.262C51.45,58.815,51.599,57.358,51.739,56.435z M59.096,59.528
		c0.2-1.123,0.569-2.324,1.142-3.367C60.29,57.372,59.849,58.544,59.096,59.528z M64.415,62.313
		c-0.059,0.746-0.382,1.424-0.927,1.922C63.748,63.542,64.059,62.888,64.415,62.313z"/>
</g>
<g>
	<path fill="#D3A205" d="M30.8,141.57c3.616,1.78,5.089,6.762,5.182,10.502c0.034,1.396,2.208,1.4,2.173,0
		c-0.11-4.475-1.946-10.257-6.258-12.379C30.645,139.076,29.542,140.951,30.8,141.57z"/>
	<path fill="#D3A205" d="M42.217,150.352c-0.199,1.371,1.896,1.961,2.095,0.578c1.196-8.242-3.499-15.031-8.212-21.334
		c-0.829-1.107-2.717-0.026-1.877,1.098C38.482,136.386,43.31,142.822,42.217,150.352z"/>
	<path fill="#D3A205" d="M49.844,148.445c-0.231,1.371,1.863,1.957,2.096,0.578c1.43-8.502-0.309-18.42-6.953-24.414
		c-1.038-0.936-2.58,0.597-1.537,1.537C49.493,131.599,51.15,140.684,49.844,148.445z"/>
	<path fill="#03496B" d="M71.316,174.49c-3.587,2.463-7.754,1.041-8.763-3.074c1.042-0.045,2.068-0.4,3.018-1.152
		c2.105-1.662,3.048-5.738,2.564-8.232c-0.638-3.281-4.514,0.365-5.251,1.391c-1.26,1.752-2.131,3.545-2.423,5.4
		c-1.973-0.855-3.572-2.773-4.596-4.785c3.327-1.727,5.782-7.623,5.646-10.535c-0.035-0.748-0.664-1.182-1.375-1.049
		c-6.34,1.18-7.99,5.299-7.184,9.398c-0.269-0.131-0.541-0.305-0.816-0.539c-0.737-0.629-1.082-1.852-1.107-3.232
		c2.646-1.398,4.415-4.916,4.285-7.916c-0.033-0.764-0.665-1.156-1.375-1.047c-3.167,0.482-4.791,3.979-4.944,7.492
		c-0.43,0.033-0.885-0.029-1.367-0.234c-0.279-0.119-0.549-0.115-0.789-0.043c-0.355-0.564-0.769-1.119-1.261-1.658
		c-4.208-4.602-8.247,1.143-10.459,4.74c-3.95-0.9-12.83-2.738-10.825-7.531c0.187-0.445,0.055-0.801-0.215-1.025
		c2.725-2.961,4.723-7.016,3.216-10.992c-1.391-3.67-6.602-6.097-10.307-4.877c-7.284,2.397-4.742,16.246-2.95,21.359
		c3.805,10.863,18.875,19.475,29.336,12.703c4.032-2.609,5.705-6.572,4.538-10.406c0.397,0.059,0.787,0.066,1.166,0.029
		c0.244,1.941,0.959,3.695,2.141,4.703c0.88,0.75,1.752,1.094,2.596,1.141c1.37,3.039,3.906,5.684,6.596,6.58
		c0.118,1.051,0.429,2.121,0.983,3.217c2.166,4.283,7.47,4.488,11.019,2.051C73.56,175.576,72.475,173.691,71.316,174.49z
		 M45.599,163.629c-2.409,5.166-9.132,6.377-14.098,5.309c-7.513-1.615-14.34-8.461-16.154-15.848
		c-1.067-4.35-2.059-11.521,1.158-15.232c2.563-2.956,7.902,0.499,8.94,3.239c1.263,3.336-1.67,7.147-3.922,9.251
		c-0.666,0.623-0.25,1.484,0.403,1.754c-1.756,6.379,9.12,8.537,13.422,9.598c0.48,0.117,0.971-0.072,1.227-0.5
		c1.021-1.695,2.03-3.377,3.354-4.859c1.916-2.145,4.263-0.168,5.496,1.592C46.653,159.678,46.45,161.803,45.599,163.629z
		 M51.421,155.111c0.309-1.111,0.792-2.133,1.413-2.857C52.547,153.25,52.065,154.291,51.421,155.111z M59.215,154.926
		c-0.449,2.504-2.063,6.145-4.204,7.012c-0.01-0.037-0.023-0.072-0.034-0.107C53.888,158.141,56.119,155.922,59.215,154.926z
		 M65.831,163.361c1-0.973,0.125,0.99-0.027,1.766c-0.199,1.02-0.57,1.975-1.109,2.859c-0.556,0.912-1.381,1.264-2.276,1.273
		C62.739,167.061,64.398,164.752,65.831,163.361z"/>
</g>
<g>
	<path fill="#D3A205" d="M37.104,252.422c-0.205,1.369,1.89,1.959,2.096,0.578c0.89-5.971-2.454-12.549-6.476-16.787
		c-0.967-1.02-2.501,0.52-1.538,1.537C34.603,241.35,37.867,247.303,37.104,252.422z"/>
	<path fill="#D3A205" d="M43.262,245.563c0.113,1.385,2.288,1.396,2.173,0c-0.602-7.352-2.962-14.109-7.298-20.094
		c-0.814-1.123-2.701-0.039-1.877,1.098C40.367,232.232,42.691,238.59,43.262,245.563z"/>
	<path fill="#D3A205" d="M43.8,224.096c6.985,3.166,7.555,12.418,8.041,19.082c0.102,1.391,2.276,1.4,2.173,0
		c-0.542-7.432-1.358-17.441-9.117-20.957C43.631,221.645,42.525,223.52,43.8,224.096z"/>
	<path fill="#03496B" d="M73.352,274.176c-6.818,5.139-9.411,0.768-9.172-3.684c0.181-0.014,0.362-0.035,0.542-0.072
		c3.229-0.672,4.409-4.064,4.983-6.934c0.151-0.75-0.318-1.289-1.047-1.375c-3.437-0.406-5.563,2.424-6.275,5.863
		c-1.087-0.533-2.03-1.564-2.668-2.43c-0.68-0.918-1.126-1.863-1.372-2.801c0.049-0.016,0.099-0.021,0.148-0.041
		c3.184-1.189,4.097-5.35,4.542-8.273c0.151-0.99-0.681-1.621-1.597-1.227c-3.617,1.555-5.349,4.426-5.407,7.535
		c-0.632-0.143-1.328-0.525-2.094-1.229c-0.901-0.83-1.436-1.729-1.671-2.621c1.938-1.525,3.309-3.779,4.463-6.014
		c0.422-0.816-0.27-1.879-1.228-1.596c-3.587,1.055-5.53,3.648-5.487,6.508c-0.108,0.061-0.222,0.113-0.335,0.17
		c-2.57-3.014-6.545-4.324-10.255-2.324c-2.132,1.148-3.9,2.949-5.899,4.301c-3.73,2.527-7.53,1.131-9.998-2.529
		c-0.952-1.408-0.863-3.09-0.28-4.844c0.041-0.051,0.081-0.1,0.116-0.162c1.516-2.635,4.065-4.787,5.025-7.736
		c0.873-2.68-0.298-4.121-2.155-6.002c-3.804-3.85-8.129-6.584-11.933-1.34c-3.862,5.326-3.524,13.295-1.343,19.117
		c2.685,7.168,8.865,12.572,15.84,15.369c5.284,2.119,11.515,0.379,16.399-2.033c2.795-1.381,6.455-4.313,6.399-7.684
		c0.242,0.324,0.504,0.645,0.805,0.957c1.031,1.074,2.426,1.791,3.876,1.93c0.374,1.617,1.161,3.23,2.365,4.699
		c0.854,1.043,2.112,2.025,3.483,2.512c-0.2,6.082,3.742,12.338,12.327,5.863C75.554,275.219,74.472,273.33,73.352,274.176z
		 M44.739,265.553c-4.497,2.617-10.393,3.922-15.366,2.158c-7.773-2.756-13.717-9.852-15.5-17.799
		c-0.755-3.369,0.461-18.434,6.592-15.047c1.439,0.793,5.009,3.146,5.882,5.297c-0.083,0.096-0.155,0.207-0.206,0.344
		c-1.678,4.453-7.365,9.986-4.893,15.158c1.956,4.092,6.567,6.934,11.032,5.363c3.875-1.365,6.516-5.957,10.711-6.357
		c1.575-0.15,3.375,0.918,4.673,2.291c-0.317,0.689,0.219,1.734,1.176,1.576c0.21,0.373,0.378,0.744,0.479,1.098
		C50.069,262.271,46.563,264.492,44.739,265.553z M60.343,256.424c-0.473,1.508-1.183,2.975-2.158,3.77
		C58.403,258.768,59.137,257.457,60.343,256.424z M67.257,264.477c-0.426,1.604-1.16,3.307-2.705,3.746
		C65.041,266.48,65.975,265.008,67.257,264.477z"/>
</g>
<g>
	<path fill="#03496B" d="M69.229,373.757c-3.451,2.188-7.221,0.594-7.924-3.434c0.966,0.012,1.933-0.277,2.852-0.953
		c2.037-1.492,3.135-5.379,2.827-7.814c-0.407-3.201-4.19,0.113-4.928,1.064c-1.261,1.625-2.166,3.311-2.538,5.086
		c-1.775-0.932-3.146-2.867-3.979-4.865c3.169-1.49,5.766-7.053,5.802-9.873c0.009-0.723-0.547-1.176-1.212-1.086
		c-5.922,0.803-7.676,4.693-7.159,8.693c-0.241-0.139-0.482-0.322-0.724-0.564c-0.646-0.646-0.896-1.844-0.843-3.18
		c2.523-1.209,4.352-4.512,4.399-7.416c0.012-0.74-0.55-1.152-1.213-1.084c-2.952,0.297-4.647,3.588-4.984,6.971
		c-0.399,0.01-0.816-0.074-1.25-0.297c-0.251-0.131-0.501-0.143-0.727-0.084c-0.297-0.564-0.647-1.123-1.072-1.67
		c-3.631-4.668-7.681,0.666-9.925,4.021c-3.599-1.08-11.7-3.326-9.581-7.848c0.197-0.422,0.095-0.771-0.142-1.004
		c2.682-2.713,4.753-6.521,3.583-10.441c-1.08-3.619-5.76-6.238-9.249-5.258c-6.862,1.928-5.284,15.436-3.913,20.469
		c2.91,10.691,16.352,19.811,26.392,13.826c3.87-2.305,5.636-6.041,4.771-9.807c0.364,0.078,0.724,0.105,1.076,0.09
		c0.117,1.889,0.681,3.621,1.716,4.656c0.771,0.771,1.558,1.15,2.334,1.24c1.096,3.008,3.292,5.695,5.727,6.703
		c0.05,1.021,0.278,2.072,0.73,3.16c1.763,4.252,6.65,4.732,10.065,2.566C71.242,374.927,70.345,373.048,69.229,373.757z
		 M46.078,361.899c-2.513,4.861-8.791,5.672-13.319,4.377c-6.85-1.959-12.775-8.934-14.04-16.164
		c-0.745-4.256-1.261-11.234,1.917-14.646c2.531-2.717,7.272,0.902,8.078,3.605c0.981,3.287-1.941,6.811-4.137,8.723
		c-0.65,0.566-0.314,1.42,0.275,1.715c-1.978,6.066,7.949,8.729,11.865,9.982c0.437,0.141,0.9-0.018,1.161-0.418
		c1.038-1.582,2.063-3.152,3.368-4.514c1.89-1.969,3.947,0.066,4.989,1.83C47.271,358.14,46.965,360.183,46.078,361.899z
		 M51.93,353.985c0.347-1.057,0.85-2.018,1.464-2.684C53.073,352.247,52.57,353.228,51.93,353.985z M59.139,354.222
		c-0.554,2.393-2.248,5.822-4.273,6.547c-0.007-0.035-0.018-0.072-0.025-0.105C54.04,357.042,56.224,355.017,59.139,354.222z
		 M64.781,362.72c0.979-0.887,0.06,0.963-0.124,1.703c-0.241,0.973-0.637,1.877-1.184,2.703c-0.564,0.85-1.346,1.146-2.173,1.107
		C61.72,366.128,63.38,363.985,64.781,362.72z"/>
	<path fill="#D3A205" d="M33.847,339.286c2.696,1.881,4.016,5.102,3.919,8.332c-0.035,1.186,1.804,1.293,1.839,0.105
		c0.117-3.887-1.503-7.715-4.737-9.973C33.891,337.071,32.875,338.606,33.847,339.286z"/>
	<path fill="#D3A205" d="M37.539,331.405c4.688,2.725,5.548,7.875,5.68,12.885c0.032,1.178,1.87,1.295,1.839,0.105
		c-0.148-5.658-1.227-11.461-6.499-14.525C37.534,329.276,36.511,330.808,37.539,331.405z"/>
	<path fill="#D3A205" d="M50.952,344.085c-0.23,1.15,1.513,1.752,1.745,0.592c1.489-7.453-1.352-13.686-6.422-19.072
		c-0.813-0.865-2.19,0.357-1.375,1.225C49.458,331.673,52.305,337.313,50.952,344.085z"/>
</g>
</svg>
