<?xml version="1.0" encoding="utf-8"?>
<!-- Generator: Adobe Illustrator 16.0.0, SVG Export Plug-In . SVG Version: 6.00 Build 0)  -->
<!DOCTYPE svg PUBLIC "-//W3C//DTD SVG 1.1//EN" "http://www.w3.org/Graphics/SVG/1.1/DTD/svg11.dtd">
<svg version="1.1" id="Calque_1" xmlns="http://www.w3.org/2000/svg" xmlns:xlink="http://www.w3.org/1999/xlink" x="0px" y="0px"
	 width="86px" height="402px" viewBox="0 0 86 402" enable-background="new 0 0 86 402" xml:space="preserve">
<g>
	<path fill="#D3A205" d="M15.024,35.653c2.433,11.986-6.942,32.068,7.473,38.917c7.13,3.388,17.547,2.673,25.228,2.419
		c7.214-0.239,16.145-1.351,19.124-8.991c3.157-8.095,2.197-17.494,0.889-25.881c-1.317-8.444-5.348-14.71-13.937-16.772
		c-7.939-1.907-17.33-0.909-25.332,0.256c-7.46,1.087-14.345,4.787-14.001,13.178c0.079,1.928,3.079,1.935,3,0
		c-0.36-8.797,9.037-10.139,15.888-10.752c7.067-0.631,14.85-1.257,21.73,0.766c8.467,2.49,9.653,11.848,10.431,19.337
		c0.715,6.892,1.529,17.122-3.912,22.401c-4.823,4.678-15.443,3.637-21.546,3.455c-6.567-0.195-15.193,0.346-20.043-4.836
		c-3.921-4.189-2.648-11.855-2.157-16.986c0.555-5.782,1.226-11.557,0.059-17.308C17.532,32.959,14.641,33.764,15.024,35.653
		L15.024,35.653z"/>
	<path fill="#D3A205" d="M40.631,43.821c-7.99-0.314-13,8.997-9.154,15.651c2.403,4.16,6.949,5.27,10.827,2.395
		c3.596-2.665,6.02-7.334,6.173-11.8c0.178-5.187-4.157-7.585-8.852-7.251c-1.918,0.137-1.932,3.137,0,3
		c2.975-0.213,5.714,0.545,5.851,3.927c0.122,3.018-1.517,6.163-3.469,8.358c-1.721,1.938-4.396,3.506-6.656,1.487
		c-4.899-4.374-1.201-13.022,5.28-12.767C42.566,46.897,42.559,43.897,40.631,43.821L40.631,43.821z"/>
	<path fill="#D3A205" d="M45.675,38.274c0.083,3.558,2.444,5.969,6.065,5.4c2.636-0.414,5.226-2.896,4.415-5.711
		c-0.657-2.283-3.071-3.527-5.261-3.797c-2.779-0.342-4.902,1.724-5.669,4.212c-0.572,1.854,2.324,2.641,2.893,0.798
		c0.393-1.273,1.184-2.031,2.406-2.033c0.937,0,2.071,0.589,2.543,1.267c0.226,0.324,0.269,0.677,0.25,0.769
		c-0.086,0.43-0.611,0.874-1.122,1.188c-0.791,0.487-1.911,0.634-2.717,0.143c-0.688-0.419-0.787-1.533-0.804-2.235
		C48.63,36.342,45.63,36.338,45.675,38.274L45.675,38.274z"/>
</g>
<g>
	<path fill="#D3A205" d="M18.027,131.183c-2.129,12.863-9.594,36.207,4.762,44.684c8.623,5.092,20.512,0.781,29.568-0.723
		c7.689-1.275,14.227-3.818,16.633-11.799c2.234-7.416,2.063-17.65-0.302-25.033c-2.481-7.75-9.547-11.426-17.067-12.922
		c-8.807-1.75-33.66-4.258-35.006,8.906c-0.196,1.926,2.806,1.906,3,0c0.627-6.129,10.432-6.568,14.965-6.828
		c5.807-0.336,11.891-0.049,17.604,1.086c7.053,1.402,12.254,5.406,14.164,12.424c1.832,6.73,1.42,16.027-0.572,22.635
		c-2.152,7.141-10.59,8.08-16.834,9.063c-8.449,1.326-19.336,5.395-26.761-0.883c-5.259-4.447-4.878-13.287-4.458-19.453
		c0.468-6.867,2.076-13.586,3.197-20.357C21.232,130.089,18.342,129.278,18.027,131.183L18.027,131.183z"/>
	<path fill="#D3A205" d="M38.08,142.806c-7.296,2.607-10.826,11.879-4.734,17.684c4.455,4.246,13.185,4.184,16.743-1.053
		c2.889-4.25,1.757-10.766-1.042-14.736c-3.485-4.945-9.056-4.557-13.438-1.055c-1.512,1.207,0.625,3.314,2.121,2.121
		c7.275-5.814,12.508,4.104,10.499,10.641c-1.396,4.543-6.397,4.416-10.163,3.371c-7.574-2.102-5.316-11.891,0.813-14.08
		C40.687,145.054,39.907,142.153,38.08,142.806L38.08,142.806z"/>
	<path fill="#D3A205" d="M49.252,138.315c0.41,2.277,2.439,3.926,4.746,3.895c2.592-0.033,4.357-2.58,4.158-5.027
		c-0.396-4.869-7.227-2.342-8.754,0.43c-0.934,1.695,1.656,3.209,2.591,1.516c0.296-0.537,1.184-1.09,1.96-1.451
		c0.35-0.164,0.814-0.266,1.075-0.281c0.528-0.033,0.247,0.203,0.106-0.17c0.271,0.723-0.294,1.912-1.137,1.984
		c-1.05,0.092-1.684-0.752-1.854-1.691C51.801,135.616,48.91,136.425,49.252,138.315L49.252,138.315z"/>
</g>
<g>
	<path fill="#D3A205" d="M17.551,229.354c-1.39,12.818-7.371,33.027,3.662,43.227c6.07,5.613,18.156,4.646,25.691,4.486
		c8.59-0.182,18.23-1.984,21.768-10.873c3.432-8.627,1.998-18.305,2.383-27.363c0.161-3.805,0.201-8.811-2.449-11.9
		c-2.506-2.924-5.76-3.41-9.451-3.701c-4.394-0.348-8.807,0.127-13.205,0.088c-4.152-0.037-8.285-0.344-12.441-0.227
		c-6.563,0.182-14.987,1.51-16.91,8.885c-0.488,1.873,2.404,2.668,2.893,0.797c1.91-7.324,12.613-6.791,18.546-6.711
		c6.22,0.086,12.421,0.023,18.64,0.074c4.724,0.037,9.242,0.297,10.891,5.48c1.172,3.686,0.383,8.033,0.318,11.832
		c-0.127,7.566,0.895,15.535-2.436,22.611c-4.1,8.711-16.396,8.223-24.502,7.977c-7.036-0.215-15.905,0.107-20.094-6.566
		c-3.365-5.361-2.957-12.818-2.578-18.861c0.406-6.455,1.579-12.83,2.275-19.254C20.76,227.432,17.757,227.451,17.551,229.354
		L17.551,229.354z"/>
	<path fill="#D3A205" d="M39.185,239.934c-6.351-0.641-9.876,4.961-9.052,10.824c0.975,6.947,6.896,11.539,13.939,10.336
		c5.648-0.967,9.24-6.012,8.307-11.699c-1.16-7.061-7.443-10.801-14.201-10.971c-1.936-0.049-1.932,2.951,0,3
		c4.811,0.121,9.264,2.223,10.912,6.998c1.365,3.955-0.42,8.211-4.461,9.5c-11.857,3.783-15.836-16.035-5.444-14.988
		C41.109,243.127,41.09,240.125,39.185,239.934L39.185,239.934z"/>
	<path fill="#D3A205" d="M49.315,237.805c1.221,2.975,4.068,4.703,7.169,3.275c2.86-1.316,3.494-5.48,2.175-8.045
		c-1.146-2.225-4.034-2.475-6.007-1.314c-2.528,1.484-2.717,4.494-1.676,6.945c0.754,1.777,3.337,0.246,2.59-1.514
		c-0.377-0.887-0.413-2.096,0.438-2.732c0.609-0.459,1.506-0.674,1.955-0.049c0.836,1.158,0.328,3.039-0.649,3.928
		c-1.137,1.033-2.66-0.217-3.102-1.291C51.484,235.244,48.58,236.016,49.315,237.805L49.315,237.805z"/>
</g>
<g>
	<path fill="#D3A205" d="M24.48,331.001c-3.117,11.861-12.159,33.072,0.589,42.264c7.656,5.52,19.199,2.518,27.838,1.9
		c7.333-0.523,13.693-2.336,16.647-9.6c2.745-6.752,3.472-16.352,1.894-23.471c-1.658-7.475-7.975-11.535-14.908-13.592
		c-8.121-2.406-31.248-6.922-33.656,5.289c-0.352,1.787,2.47,2.029,2.818,0.262c1.121-5.686,10.37-5.24,14.65-5.09
		c5.483,0.191,11.174,0.99,16.44,2.553c6.504,1.928,11.041,6.133,12.226,12.869c1.135,6.465-0.061,15.135-2.506,21.15
		c-2.643,6.498-10.65,6.645-16.601,7.018c-8.053,0.506-18.632,3.367-25.061-3.16c-4.554-4.623-3.427-12.869-2.496-18.605
		c1.036-6.393,3.132-12.543,4.772-18.789C27.587,330.255,24.942,329.243,24.48,331.001L24.48,331.001z"/>
	<path fill="#D3A205" d="M42.307,343.636c-7.08,1.803-11.202,10.18-5.985,16.146c3.816,4.365,12.021,5.068,15.819,0.475
		c3.083-3.729,2.587-9.928,0.303-13.893c-2.845-4.936-8.11-5.057-12.531-2.16c-1.524,1,0.3,3.16,1.808,2.172
		c7.34-4.811,11.393,4.934,8.938,10.883c-1.707,4.133-6.393,3.576-9.839,2.27c-6.933-2.627-3.96-11.6,1.986-13.115
		C44.56,345.966,44.079,343.183,42.307,343.636L42.307,343.636z"/>
	<path fill="#D3A205" d="M53.19,340.403c0.188,2.168,1.95,3.889,4.119,4.061c2.438,0.195,4.318-2.037,4.344-4.346
		c0.051-4.596-6.585-2.822-8.26-0.359c-1.025,1.506,1.277,3.148,2.302,1.643c0.324-0.477,1.206-0.916,1.966-1.188
		c0.344-0.121,0.789-0.176,1.035-0.17c0.5,0.016,0.215,0.213,0.114-0.15c0.193,0.703-0.442,1.766-1.239,1.762
		c-0.994-0.006-1.517-0.852-1.595-1.748C55.819,338.097,53.034,338.603,53.19,340.403L53.19,340.403z"/>
</g>
</svg>
