<?xml version="1.0" encoding="utf-8"?>
<!-- Generator: Adobe Illustrator 16.0.0, SVG Export Plug-In . SVG Version: 6.00 Build 0)  -->
<!DOCTYPE svg PUBLIC "-//W3C//DTD SVG 1.1//EN" "http://www.w3.org/Graphics/SVG/1.1/DTD/svg11.dtd">
<svg version="1.1" id="Calque_1" xmlns="http://www.w3.org/2000/svg" xmlns:xlink="http://www.w3.org/1999/xlink" x="0px" y="0px"
	 width="86px" height="402px" viewBox="0 0 86 402" enable-background="new 0 0 86 402" xml:space="preserve">
<path fill="#D3A205" d="M70.4,34.75c0.033-0.221,0.016-0.43-0.05-0.627l-0.06-0.174c-0.261-0.773-0.685-0.994-0.995-1.044
	l-0.382-0.062c-0.113-0.017-0.22-0.021-0.325-0.011c-1.354-0.923-3.067-1.325-5.074-1.19c-1.581,0.109-3.157,0.415-4.681,0.711
	c-1.402,0.272-2.852,0.555-4.281,0.676l-1.425,0.121c-2.993,0.254-6.088,0.519-9.133,0.712c-2.954,0.188-5.416,0.274-7.749,0.274
	c-5.188,0-9.697-0.461-13.777-1.408c-0.347-0.402-0.855-0.525-1.312-0.32c-0.686-0.181-1.349,0.225-1.598,0.969
	c-0.18,0.539-0.102,1.096,0.188,1.484c-1.28,5.143-0.989,10.612-0.58,15.781c0.125,1.577,0.275,3.149,0.425,4.724
	c0.148,1.551,0.295,3.104,0.419,4.658c0.031,0.387,0.076,0.811,0.124,1.258c0.189,1.77,0.424,3.973-0.155,5.344
	c-0.223,0.529-0.163,1.18,0.154,1.656c0.333,0.504,0.913,0.705,1.453,0.5c1.883-0.713,4.013-1.059,6.513-1.059
	c2.72,0,5.561,0.406,8.309,0.801c2.612,0.375,5.313,0.762,7.841,0.779c2.341,0.016,4.743,0.154,7.066,0.289
	c2.504,0.145,5.093,0.295,7.64,0.295h0c4.538,0,8.204-0.49,11.535-1.543c0.526-0.166,1.049-0.791,0.976-1.508
	c-0.769-7.533-0.75-15.866,0.057-26.217C71.71,38.252,71.331,36.278,70.4,34.75z M22.537,56.708
	c-0.146-1.059-0.285-2.063-0.371-2.959l-0.054-0.566c-0.514-5.384-1.043-10.938-0.037-16.176c2.197,2.928,4.63,5.645,6.99,8.279
	c3.902,4.357,7.938,8.864,10.885,14.323c0.331,0.613,1.012,0.912,1.583,0.697c6.366-2.377,11.593-7.029,15.436-10.819
	c2.554-2.515,5.094-5.121,7.478-7.572c1.247-1.281,2.367-2.729,3.392-4.102c0.183-0.242,0.394-0.457,0.622-0.664
	c0.452,1.559,0.348,3.578,0.194,5.229c-0.709,7.605-0.711,15.672-0.006,23.358c-2.918,0.793-6.124,1.162-10.045,1.162
	c-2.608,0-5.275-0.162-7.854-0.318c-2.418-0.146-4.918-0.299-7.356-0.316c-2.434-0.016-4.916-0.367-7.542-0.74
	c-2.682-0.379-5.454-0.771-8.159-0.771c-1.694,0-3.218,0.152-4.634,0.467C23.344,62.548,22.917,59.46,22.537,56.708z M66.442,35.117
	c-0.733,0.688-1.368,1.53-1.982,2.344c-0.393,0.521-0.8,1.061-1.217,1.537c-1.228,1.398-2.576,2.715-3.88,3.988
	c-0.956,0.932-1.943,1.896-2.883,2.891c-5.185,5.496-10.027,9.145-14.788,11.141c-2.983-5.173-6.846-9.509-10.583-13.702
	c-2.004-2.248-4.067-4.654-5.98-7.083C28.583,36.809,32.301,37,36.445,37c0.001,0,0.001,0,0.002,0
	c5.448,0,10.978-0.396,16.324-0.863c1.532-0.135,3.061-0.224,4.584-0.347c1.198-0.098,2.372-0.33,3.508-0.576
	c1.458-0.316,2.834-0.606,4.276-0.606c0.587,0,1.094,0.098,1.531,0.285C66.594,34.967,66.518,35.045,66.442,35.117z"/>
<path fill="#D3A205" d="M71.616,139.13c-0.514-5.484-6.311-5.53-8.786-5.551c-1.527-0.012-3.053-0.02-4.578-0.02
	c-6.504,0-11.888,0.137-16.943,0.428c-0.979,0.057-1.96,0.104-2.942,0.151c-2.532,0.122-5.151,0.249-7.718,0.536
	c-1.179,0.133-2.434,0.262-3.672,0.262c-2.825,0-4.897-0.711-6.521-2.24c-0.644-0.605-1.673-0.402-2.131,0.373
	c-0.203,0.342-0.264,0.728-0.18,1.084c-0.025,0.035-0.049,0.072-0.071,0.111c-0.432,0.25-0.682,0.724-0.678,1.304
	c0.021,2.974,0.089,5.987,0.155,8.901c0.094,4.125,0.479,8.385,0.443,12.59c-0.526,0.088-0.995,0.324-0.995,0.953
	c0,2.713,0,5.359,0,7.889c0,0.826,0.824,1.373,1.207,1.467c7.909,1.969,16.037,2.24,23.798,2.24c1.726,0,3.378-0.014,5.098-0.027
	c2.904-0.023,5.763-0.045,8.628-0.002c0.81,0.012,1.668,0.078,2.597,0.15c1.131,0.086,2.292,0.176,3.467,0.176l0,0
	c2.187,0,5.336-0.285,7.475-2.746c2.147-2.473,1.894-7.348,1.691-11.264c-0.047-0.918-0.092-1.766-0.097-2.488
	c-0.014-2.016,0.208-4.066,0.422-6.051C71.577,144.679,71.875,141.908,71.616,139.13z M62.537,141.278
	c-5.475,4.993-11.134,10.154-17.461,13.639c-4.579-1.801-8.939-5.283-12.454-8.09c-3.293-2.63-7.002-5.783-10.132-9.583
	c1.359,0.464,2.881,0.686,4.655,0.686h0c1.3,0,2.613-0.12,3.612-0.226c6.405-0.673,12.983-0.893,19.345-1.104l0.286-0.01
	c3.352-0.109,6.758-0.096,10.125,0.045c0.638,0.026,1.283,0.016,1.928,0.005c0.342-0.006,0.684-0.012,1.026-0.012
	c1.369,0,2.546,0.101,3.638,0.53C65.574,138.507,64.057,139.892,62.537,141.278z M20,161.063c1-0.176,0.782-0.672,0.809-1.389
	c0.185-4.939-0.185-9.93-0.402-14.758c-0.088-1.963-0.251-3.979-0.314-5.986c3.004,3.708,6.585,6.806,10.334,9.902
	c3.88,3.205,8.07,6.443,12.584,8.463c0.179,0.6,0.694,1.152,1.393,1.152c0.203,0,0.398-0.049,0.588-0.145
	c7.028-3.535,13.153-9.125,19.079-14.529c1.58-1.441,3.155-2.881,4.746-4.278c0.058-0.051,0.11-0.104,0.158-0.16
	c0.614,2.511,0.02,6.812-0.366,9.61c-0.127,0.918-0.234,1.701-0.281,2.258c-0.149,1.807-0.12,3.639-0.091,5.41
	c0.037,2.277,0.074,4.633-0.274,6.908c-0.356,2.326-2.648,3.457-7.007,3.457c-1.639,0-3.343-0.156-4.711-0.281
	c-0.989-0.092-1.844-0.17-2.484-0.176c-0.875-0.01-1.75-0.014-2.623-0.014c-1.594,0-3.187,0.012-4.78,0.025
	c-1.592,0.012-2.896,0.023-4.493,0.023c-6.985,0-13.862-0.232-21.862-1.895V161.063z"/>
<path fill="#D3A205" d="M71.366,233.365c0.233-0.367,0.293-0.805,0.161-1.238c-0.126-0.414-0.414-0.76-0.769-0.943
	c-0.218-0.652-0.68-1.037-1.273-1.061c-9.265-0.355-18.337-0.422-25.989-0.441l-4.037-0.01c-2.683,0-5.847,0.025-8.971,0.211
	c-1.407,0.082-3.002,0.178-4.547,0.178c-2.419,0-4.391-0.234-6.186-0.734c-0.299-0.398-0.845-0.584-1.363-0.441l-0.085-0.031
	c-0.771-0.295-1.535,0.221-1.7,1.117c-0.123,0.664,0.113,1.285,0.587,1.619c-0.5,6.588,0.167,13.207,0.814,19.611
	c0.459,4.549,0.933,9.25,0.98,13.883c-0.48,0.104-0.96,0.215-1.438,0.336c-0.684,0.174-1.078,0.813-0.981,1.592
	c0.115,0.924,0.873,1.539,1.684,1.338c0.231-0.059,0.463-0.115,0.695-0.17c-0.033,1.01-0.08,1.875-0.145,2.68
	c-0.046,0.566,0.161,0.918,0.342,1.115c0.238,0.258,0.569,0.4,0.932,0.4c0.657,0,1.362-0.492,1.438-1.434
	c0.081-0.992,0.133-2.059,0.164-3.328c3.73-0.668,7.764-0.98,12.649-0.98c3.521,0,7.12,0.164,10.601,0.32
	c3.492,0.158,7.102,0.322,10.646,0.322h0.001c3.446,0,6.478-0.156,9.268-0.477c4.875-0.561,7.52-4.125,7.862-10.594
	C73.06,249.49,73.226,240.846,71.366,233.365z M53.52,245.975c-1.215,0.965-2.426,2.096-3.597,3.191
	c-2.207,2.063-4.489,4.195-6.966,5.395c-1.078,0.527-2.923-1.395-3.957-2.498c-0.216-0.23-0.412-0.438-0.581-0.607l-0.81-0.813
	c-1.222-1.227-2.486-2.496-3.816-3.664c-4.66-4.098-9.478-8.57-12.943-14.309c1.538,0.285,3.205,0.42,5.153,0.42
	c0.831,0,1.665-0.381,2.501-0.416c3.413-0.148,7.924-0.674,12.554-0.674h0.178c7.823,0,17.04,0.416,26.479,0.74
	C63.497,237.172,58.843,241.748,53.52,245.975z M30.796,248.174c1.983,1.803,4.025,3.754,6.244,5.965l0.194,0.195
	c1.432,1.432,3.055,3.057,5.058,3.354c1.578,0.242,3.183-1.068,4.436-2.1l0.462-0.377c1.111-0.887,2.182-1.869,3.217-2.818
	c0.931-0.852,1.893-1.732,2.871-2.535c5.48-4.479,10.817-8.932,15.816-14.064c1.024,5.291,0.971,10.924,0.919,16.381l-0.019,2.223
	c-0.017,2.947-0.038,6.617-2.48,8.434c-1.622,1.205-3.967,1.172-6.031,1.135c-0.328-0.004-0.655,0.012-1.024-0.01
	c-2.116,0.006-4.228,0.027-6.338,0.049c-2.373,0.025-4.745,0.049-7.118,0.049c-2.903,0-5.329-0.035-7.634-0.115
	c-1.923-0.064-4.195-0.133-6.472-0.133c-4.333,0-7.912,0.246-11.202,0.77c-0.075-4.514-0.534-9.068-0.978-13.479
	c-0.494-4.902-1.003-9.953-0.984-14.965C22.99,240.904,27.124,244.83,30.796,248.174z"/>
<path fill="#D3A205" d="M16.564,330.475c2.679,13.357-12.558,35.689,6.65,41.77c14.852,4.701,30.818-0.768,45.915,0.18
	c0.618,0.039,1.333-0.482,1.446-1.102c2.312-12.588,2.813-25.311,2.721-38.086c-0.005-0.693-0.459-1.232-1.101-1.445
	c-7.936-2.639-16.05-2.047-24.282-1.875c-9.522,0.197-18.85-2.445-28.379-1.797c-0.762,0.051-1.57,0.645-1.5,1.5
	c0.915,11.143,13.381,21.107,22.124,26.627c0.422,0.266,1.095,0.293,1.514,0c9.989-6.98,23.616-9.248,30.352-20.271
	c1.012-1.654-1.584-3.16-2.591-1.514c-6.106,9.992-18.919,12.459-28.223,18.459c-1.643,1.061-9.583-7.205-11.024-8.623
	c-3.873-3.809-8.683-8.975-9.151-14.678c-0.5,0.5-1,1-1.5,1.5c8.438-0.574,16.723,1.387,25.125,1.777
	c9.094,0.422,17.876-1.158,26.738,1.787c-0.367-0.482-0.734-0.965-1.101-1.447c0.09,12.504-0.35,24.963-2.614,37.289
	c0.482-0.367,0.964-0.734,1.446-1.102c-14.165-0.889-28.257,3.189-42.438,0.58c-2.932-0.539-5.925-1.506-8.141-3.572
	c-3.31-3.084-2.426-9.035-1.855-12.996c1.119-7.756,4.346-15.861,2.761-23.758C19.076,327.781,16.185,328.586,16.564,330.475
	L16.564,330.475z"/>
</svg>
