<?xml version="1.0" encoding="utf-8"?>
<!-- Generator: Adobe Illustrator 16.0.0, SVG Export Plug-In . SVG Version: 6.00 Build 0)  -->
<!DOCTYPE svg PUBLIC "-//W3C//DTD SVG 1.1//EN" "http://www.w3.org/Graphics/SVG/1.1/DTD/svg11.dtd">
<svg version="1.1" id="Calque_1" xmlns="http://www.w3.org/2000/svg" xmlns:xlink="http://www.w3.org/1999/xlink" x="0px" y="0px"
	 width="86px" height="402px" viewBox="0 0 86 402" enable-background="new 0 0 86 402" xml:space="preserve">
<g>
	<path fill="#03496B" d="M10.597,38.957c0.843,2.149,0.695,4.187,0.348,6.419c-0.124,0.796,0.447,1.45,1.278,1.277
		c5.592-1.164,10.246,0.871,13.944,4.98c2.591,2.88,5.785,6.721,6.388,10.677c0.578-0.338,1.157-0.674,1.736-1.011
		c-1.454-1.584-2.9-2.26-4.99-2.706c-0.688-0.148-1.271,0.303-1.314,1c-0.389,6.27-2.917,13.59,1.633,18.925
		c6.474,7.589,16.438,0.866,24.152,0.935c0.844,0.009,1.459-1.18,0.734-1.771c-1.637-1.338-3.605-2.928-3.904-5.179
		c-0.323-2.438,3.484-2.673,5.039-2.237c1.057,0.295,2.116,1.044,3.058,1.607c2.574,1.542,5.116,2.218,8.087,1.52
		c5.934-1.396,8.654-8.856,9.285-14.146c0.105-0.879-0.938-1.165-1.563-0.897c-2.437,1.041-4.861,1.989-7.42,2.685
		c0.426,0.241,0.852,0.482,1.277,0.725c-1.184-4.98,0.253-9.933,1.395-14.784c0.191-0.811-0.496-1.426-1.277-1.277
		c-3.064,0.58-5.314,2.906-8.365,3.484c0.438,0.334,0.877,0.668,1.314,1.002c0.48-4.875,5.168-5.845,7.517-9.554
		c2.787-4.4,0.619-10.754,0.5-15.541c-0.028-1.116-1.333-1.306-1.936-0.523c-3.503,4.545-12.191,3.052-16.938,1.756
		c-4.451-1.215-5.213-6.582-10.095-6.939c-2.718-0.199-2.993,3.184-3.135,5.072c-0.198,2.614-0.654,4.699-3.005,6.172
		c-2.601,1.63-6.591,1.938-9.321,0.537c-0.733-0.375-1.876,0.255-1.525,1.174c0.514,1.349,2.004,4.362,0.907,5.736
		c-0.711,0.893-3.019,0.383-3.932,0.26c-2.839-0.385-5.642-1.028-8.522-0.689c-0.563,0.066-1.037,0.423-1.039,1.039
		c-0.007,2.754,0.764,4.965,3.309,6.268c2.912,1.49,6.177,1.231,8.497,3.878c0.885,1.008,2.348-0.467,1.469-1.471
		c-3.398-3.875-11.214-2.439-11.198-8.675c-0.346,0.346-0.692,0.693-1.039,1.039c4.087-0.482,8.08,1.325,12.129,0.739
		c4.253-0.616,2.34-6.265,1.42-8.677c-0.509,0.392-1.017,0.782-1.526,1.174c3.672,1.884,8.99,1.438,12.289-1.114
		c1.721-1.332,2.548-2.98,2.925-5.1c0.321-1.808-0.415-5.735,2.327-5.118c2.551,0.572,3.458,4.042,5.542,5.363
		c2.5,1.584,5.623,2.096,8.525,2.34c4.936,0.416,10.426,0.57,13.729-3.715c-0.646-0.176-1.291-0.35-1.936-0.525
		c0.135,5.379,2.663,12.314-1.912,16.485c-3.098,2.824-5.65,4.011-6.104,8.61c-0.072,0.721,0.712,1.115,1.314,1.002
		c3.064-0.582,5.314-2.908,8.365-3.486c-0.427-0.424-0.853-0.851-1.278-1.277c-1.233,5.238-2.671,10.52-1.395,15.889
		c0.132,0.552,0.746,0.869,1.278,0.725c2.729-0.74,5.319-1.783,7.916-2.893c-0.521-0.299-1.043-0.599-1.563-0.896
		c-0.538,4.517-2.46,9.258-6.535,11.648c-4.358,2.558-8.166-1.766-12.146-2.879c-2.519-0.705-5.941,0.848-6.66,3.458
		c-0.857,3.118,2.281,5.958,4.385,7.676c0.244-0.591,0.489-1.182,0.734-1.772c-7.564-0.068-15.162,5.703-22.096,0.236
		c-4.956-3.907-1.936-12.801-1.612-18.02c-0.438,0.334-0.876,0.668-1.315,1.002c1.632,0.35,2.911,0.906,4.073,2.172
		c0.775,0.846,1.878-0.072,1.736-1.01c-0.731-4.805-4.762-9.311-7.968-12.731c-3.869-4.13-9.449-5.514-14.92-4.375
		c0.426,0.425,0.852,0.852,1.278,1.278c0.401-2.58,0.623-5.049-0.348-7.524C12.116,37.172,10.107,37.708,10.597,38.957
		L10.597,38.957z"/>
	<path fill="#D3A205" d="M30.419,49.479c-0.049,0.002-0.098-0.004-0.144-0.021c0.102,0.064,0.126,0.082,0.075,0.051
		c0.135,0.111,0.256,0.24,0.38,0.363c0.601,0.6,1.853,0.199,1.773-0.734c-0.027-0.311-0.083-0.527-0.206-0.811
		c-0.042-0.096-0.087-0.189-0.134-0.285c-0.1-0.199-0.015-0.021-0.009,0.049c-0.044-0.523-0.439-1.088-1.039-1.037
		c-0.617,0.051-1.222,0.395-1.521,0.957c-0.2,0.377-0.225,0.834-0.004,1.211c0.251,0.43,0.707,0.582,1.177,0.605
		c0.566,0.027,1.038-0.492,1.038-1.039c0-0.586-0.473-1.012-1.038-1.039c0.171,0.018,0.323,0.088,0.454,0.213
		c0.089,0.152,0.179,0.307,0.267,0.459c0.046,0.211,0.021,0.408-0.075,0.59c-0.115,0.219-0.083,0.104,0.002,0.025
		c-0.124,0.09-0.139,0.105-0.047,0.045c0.151-0.096-0.213,0.047-0.253,0.049c-0.346-0.346-0.692-0.691-1.039-1.039
		c0.026,0.311,0.083,0.527,0.206,0.811c0.042,0.098,0.087,0.191,0.134,0.285c0.1,0.199,0.015,0.021,0.009-0.049
		c0.591-0.246,1.182-0.49,1.773-0.734c-0.518-0.518-1.026-0.936-1.78-1.002c-0.564-0.051-1.039,0.51-1.039,1.039
		C29.38,49.043,29.855,49.428,30.419,49.479L30.419,49.479z"/>
</g>
<g>
	<path fill="#03496B" d="M12.957,140.267c-0.205,2.082-0.878,4.336,0.266,6.242c1.157,1.93,3.706,2.439,5.728,2.189
		c2.301-0.287,3.826,0.365,4.565,2.645c0.423,1.301,1.632,2.25,2.635,3.088c2.931,2.447,5.354,3.566,6.013,7.721
		c0.425-0.426,0.852-0.85,1.277-1.275c-0.919-0.381-1.869-0.666-2.788-1.047c-0.654-0.27-1.292,0.396-1.315,1.002
		c-0.226,6.053-4.624,14.889,2.051,18.994c2.543,1.566,6.105,1.455,8.962,1.393c3.182-0.07,6.196-0.088,9.369,0.154
		c2.063,0.16,3.948,0.43,5.347-1.393c1.105-1.441,0.346-2.652-0.997-3.541c-0.915-0.605-2.965-1.146-2.747-2.605
		c0.244-1.633,2.574-2.041,3.861-2.184c2.821-0.313,7.111,0.471,8.453,3.297c0.194,0.41,0.758,0.604,1.174,0.479
		c5.318-1.611,11.627-7.59,11.219-13.549c-0.045-0.639-0.636-1.227-1.315-1c-2.073,0.686-4.128,1.318-6.273,1.74
		c0.426,0.242,0.853,0.484,1.277,0.727c-0.665-4.885-1.007-9.797-1.357-14.711c-0.042-0.6-0.646-1.277-1.314-1.002
		c-2.34,0.965-4.21,2.354-6.035,4.102c0.591,0.244,1.183,0.488,1.773,0.734c-0.208-3.537,1.153-10.277,6.005-9.106
		c0.613,0.147,1.367-0.304,1.314-1.001c-0.361-4.688-0.742-9.354-2.128-13.869c-0.167-0.545-0.72-0.874-1.278-0.727
		c-7.282,1.932-16.183,0.678-20.088-6.492c-0.227-0.417-0.729-0.585-1.173-0.479c-2.485,0.602-4.873,0.613-7.393,0.312
		c-0.515-0.062-1.104,0.521-1.038,1.039c0.371,2.964,0.466,6.372-2.143,8.384c-2.53,1.949-6.511,1.498-9.438,1.071
		c-0.781-0.114-1.471,0.44-1.277,1.277c0.216,0.938,1.977,5.702,0.979,6.456c-1.557,1.177-5.982-0.17-7.786-0.227
		c-4.853-0.152-6.823,2.53-4.591,6.914c0.608,1.195,2.4,0.143,1.794-1.047c-2.395-4.705,3.075-3.9,5.987-3.551
		c1.619,0.194,3.794,0.6,5.347-0.152c3.044-1.477,0.797-6.67,0.272-8.945c-0.425,0.426-0.852,0.852-1.277,1.277
		c3.717,0.543,7.729,0.811,11.038-1.281c3.404-2.151,3.618-6.611,3.172-10.177c-0.346,0.347-0.692,0.692-1.039,1.038
		c2.709,0.324,5.292,0.256,7.945-0.385c-0.392-0.158-0.782-0.318-1.174-0.478c4.352,7.989,14.258,9.616,22.435,7.448
		c-0.426-0.242-0.852-0.484-1.277-0.727c1.33,4.34,1.707,8.814,2.053,13.318c0.439-0.334,0.877-0.668,1.315-1.002
		c-6.36-1.536-8.935,6.016-8.634,11.109c0.053,0.896,1.094,1.383,1.772,0.734c1.536-1.471,3.124-2.746,5.119-3.566
		c-0.438-0.334-0.877-0.668-1.315-1.002c0.363,5.102,0.74,10.195,1.432,15.262c0.08,0.59,0.781,0.824,1.277,0.727
		c2.145-0.424,4.201-1.057,6.274-1.742c-0.438-0.334-0.876-0.668-1.315-1.002c0.343,4.996-5.231,10.193-9.693,11.547
		c0.391,0.158,0.781,0.316,1.174,0.477c-1.936-4.074-7.863-4.799-11.791-4.109c-3.27,0.572-6.435,4.672-2.846,7.121
		c0.87,0.594,1.895,0.996,2.708,1.67c0.946,0.781-2.292,0.805-2.305,0.805c-0.755-0.023-1.509-0.094-2.262-0.15
		c-2.901-0.223-5.675-0.199-8.585-0.096c-4.614,0.164-9.994-0.145-10.542-5.816c-0.405-4.176,1.451-8.326,1.606-12.492
		c-0.438,0.334-0.876,0.666-1.315,1.002c0.919,0.379,1.869,0.664,2.788,1.045c0.817,0.338,1.385-0.604,1.277-1.277
		c-0.413-2.611-1.307-4.594-3.338-6.311c-0.855-0.723-1.826-1.324-2.737-1.973c-1.833-1.307-2.198-2.668-3.167-4.496
		c-1.103-2.082-2.844-2.625-5.078-2.348c-1.758,0.219-4.392,0.488-5.147-1.662c-0.436-1.242,0.211-3.281,0.336-4.545
		C15.165,138.935,13.086,138.946,12.957,140.267L12.957,140.267z"/>
	<path fill="#D3A205" d="M30.525,150.202c-0.05-0.125-0.058-0.133-0.025-0.027c-0.015-0.156-0.018-0.176-0.01-0.063
		c0.006,0.082,0,0.166-0.007,0.248c-0.021,0.279-0.001,0.551,0.145,0.799c0.263,0.449,0.745,0.584,1.232,0.506
		c0.276-0.045,0.553-0.244,0.782-0.395c0.865-0.568,0.53-1.896-0.524-1.936c-0.269-0.01,0.204,0.039-0.014,0.002
		c-0.095-0.018-0.19-0.037-0.286-0.057c-0.232-0.045-0.47-0.09-0.708-0.1c-0.402-0.016-0.8,0.203-1.003,0.549
		c-0.28,0.479-0.117,0.998,0.231,1.379c0.235,0.258,0.677,0.381,1.01,0.268c0.608-0.205,1.206-0.422,1.42-1.09
		c0.181-0.566-0.211-1.018-0.451-1.48c-0.26-0.504-0.952-0.648-1.421-0.373c-0.506,0.295-0.634,0.918-0.373,1.42
		c0.094,0.182,0.212,0.35,0.31,0.527c-0.071-0.123-0.106-0.254-0.103-0.398c0.086-0.209,0.172-0.42,0.257-0.629
		c0.165-0.117,0.2-0.146,0.105-0.088c-0.183,0.109,0.248-0.092-0.007,0.008c-0.095,0.035-0.192,0.066-0.29,0.1
		c0.337,0.09,0.674,0.178,1.01,0.268c0.08,0.205,0.158,0.41,0.237,0.613c-0.102,0.246-0.203,0.49-0.304,0.734
		c-0.661,0.178-0.855,0.27-0.581,0.271c0.105,0.012,0.071,0.006-0.101-0.014c0.094,0.014,0.187,0.035,0.28,0.053
		c0.257,0.051,0.518,0.105,0.78,0.115c-0.174-0.645-0.35-1.291-0.524-1.936c-0.092,0.061-0.186,0.121-0.28,0.178
		c-0.042,0.025-0.085,0.049-0.129,0.07c0.115-0.068,0.239-0.102,0.373-0.104c0.174,0.047,0.35,0.094,0.524,0.143
		c0.059,0.045,0.118,0.09,0.176,0.135c0.089,0.154,0.179,0.307,0.267,0.459c-0.037-0.09,0.009,0.344,0.026,0.105
		c0.006-0.096,0.016-0.189,0.017-0.285c0.008-0.371-0.102-0.693-0.25-1.025c-0.232-0.518-0.973-0.635-1.421-0.373
		C30.372,149.089,30.293,149.685,30.525,150.202L30.525,150.202z"/>
</g>
<g>
	<path fill="#03496B" d="M15.941,240.678c0.958-0.008,1.783-0.156,2.716-0.385c2.656-0.65,5.192-0.176,7.812,0.348
		c0.503,0.102,1.188-0.137,1.278-0.725c0.422-2.756-0.788-4.898-1.008-7.596c-0.438,0.334-0.876,0.668-1.315,1.002
		c5.153,1.146,11.675,2.791,14.592-3.092c1.28-2.582,1.66-7.943,5.791-7.145c2.846,0.549,5.584,3.143,8.11,4.482
		c3.269,1.732,6.983,1.912,10.543,2.617c1.156,0.229,2.32,0.428,3.448,0.773c1.006,0.309,0.674,2.184,0.672,2.947
		c-0.011,3.662-1.095,6.189-3.008,9.227c-1.592,2.525-2.646,5.016-2.92,8.01c-0.068,0.744,0.95,1.35,1.563,0.895
		c0.891-0.66,1.896-1.082,2.788-1.742c-0.419-0.055-0.839-0.109-1.259-0.162c3.049,2.82,1.313,19.646,9.486,13.244
		c-0.58-0.336-1.158-0.672-1.736-1.01c-0.75,3.271-1.922,6.51-4.765,8.529c-3.62,2.57-6.722,0.121-10.396-0.254
		c-4.887-0.502-8.436,4.943-4.788,8.768c0.245-0.592,0.489-1.182,0.733-1.773c-6.133-0.307-12.468,0.615-18.494-0.861
		c-6.576-1.609-3.727-12.07-2.81-16.645c-0.579,0.152-1.158,0.305-1.736,0.457c0.788,0.627,1.669,1.09,2.439,1.744
		c1.02,0.867,2.352-0.451,1.469-1.469c-2.005-2.311-1.562-7.139-4.296-8.771c-1.586-0.947-3.429-1.053-3.759-3.188
		c-0.177-1.146-0.91-2.25-1.915-2.842c-1.379-0.814-3.243-0.965-4.775-1.326c-1.914-0.449-6.774-1.277-3.59-3.504
		c1.089-0.76,0.052-2.563-1.049-1.793c-5.409,3.781,0.045,6.309,4.086,7.301c1.158,0.285,2.327,0.52,3.481,0.82
		c2.134,0.559,1.401,3.039,2.678,4.314c1.878,1.879,4.088,1.381,4.974,4.68c0.613,2.283,1.113,3.957,2.694,5.777
		c0.489-0.49,0.979-0.98,1.469-1.469c-0.781-0.664-1.642-1.109-2.44-1.742c-0.556-0.441-1.566-0.389-1.736,0.457
		c-1.076,5.369-3.19,13.248,1.199,17.682c2.057,2.08,6.013,2.135,8.717,2.314c4.458,0.301,8.932-0.084,13.392,0.141
		c0.939,0.047,1.331-1.148,0.734-1.773c-2.806-2.943,1.042-5.77,4-5.018c1.262,0.32,2.424,0.895,3.703,1.178
		c1.768,0.391,4.104,0.049,5.732-0.715c4.199-1.967,6.061-6.162,7.047-10.467c0.249-1.084-0.939-1.635-1.735-1.01
		c-3.296,2.58-3.702-3.68-4.073-5.828c-0.406-2.369-0.583-5.668-2.475-7.418c-0.314-0.293-0.879-0.443-1.258-0.162
		c-0.892,0.66-1.897,1.082-2.788,1.742c0.521,0.299,1.042,0.598,1.563,0.898c0.349-3.818,2.56-6.584,4.352-9.816
		c1.446-2.609,1.569-5.25,1.578-8.164c0.016-5.551-6.007-5.086-10.353-5.764c-4.188-0.654-7.386-2.84-10.926-4.963
		c-1.762-1.057-4.327-2.232-6.347-1.129c-2.285,1.246-3.401,3.553-4.166,5.945c-2.085,6.527-7.458,5.277-12.893,4.068
		c-0.612-0.137-1.373,0.293-1.314,1c0.195,2.391,1.456,4.604,1.083,7.043c0.425-0.242,0.852-0.482,1.277-0.725
		c-1.795-0.359-3.55-0.703-5.381-0.766c-1.946-0.066-3.777,0.711-5.699,0.729C14.602,238.613,14.601,240.689,15.941,240.678
		L15.941,240.678z"/>
	<path fill="#D3A205" d="M31.974,250.438c-0.371-0.047-0.667-0.25-0.762-0.402c0.02,0.031,0.034,0.066,0.05,0.1
		c-0.215-0.461,0.112,0.271,0.116,0.281c0.124,0.285,0.325,0.549,0.603,0.699c1.158,0.635,1.902-0.666,2.284-1.541
		c-0.299,0.172-0.598,0.344-0.897,0.514c0.58-0.039,1.084-0.432,1.084-1.053c0-0.449-0.281-0.783-0.646-1.002
		c-0.18-0.107-0.373-0.195-0.56-0.289c-0.091-0.047-0.182-0.094-0.271-0.143c-0.208-0.113-0.015-0.021,0.038,0.043
		c0.088,0.152,0.178,0.305,0.267,0.459c-0.001-0.004-0.002-0.008-0.003-0.012c-0.035,0.268-0.07,0.533-0.105,0.801
		c0.002-0.002,0.003-0.006,0.006-0.008c-0.207,0.158-0.414,0.316-0.621,0.477c-0.078,0.01-0.157,0.02-0.235,0.029
		c-0.334-0.438-0.667-0.875-1.002-1.314c-0.104,0.516-0.283,1.055-0.298,1.584c-0.012,0.375,0.181,0.717,0.298,1.061
		c0.288,0.846,1.411,1.043,1.898,0.248c0.355-0.58,0.478-1.248,0.278-1.904c-0.075-0.248-0.2-0.486-0.337-0.705
		c-0.053-0.084-0.11-0.164-0.165-0.246c-0.153-0.234,0.006,0.133,0.018,0.24c-0.058-0.564-0.428-1.039-1.039-1.039
		c-0.522,0-1.097,0.475-1.039,1.039c0.043,0.418,0.207,0.713,0.43,1.055c0.046,0.07,0.087,0.141,0.128,0.215
		c0.133,0.242-0.056-0.193,0.026,0.08c0.078,0.256,0.007-0.188,0.001,0.096c0.003-0.135-0.059,0.061-0.095,0.121
		c0.633,0.084,1.265,0.166,1.898,0.248c-0.054-0.162-0.114-0.32-0.178-0.479c-0.021-0.051-0.04-0.102-0.057-0.152
		c-0.068-0.201,0.016,0.275,0.011,0.123c-0.002-0.082,0.037-0.238-0.021,0.121c0.013-0.08,0.032-0.16,0.049-0.238
		c0.067-0.303,0.135-0.607,0.196-0.914c0.125-0.617-0.287-1.365-1.001-1.314c-0.58,0.041-1.085,0.432-1.085,1.055
		c0,0.447,0.281,0.781,0.646,1.002c0.18,0.107,0.373,0.193,0.56,0.289c0.091,0.045,0.182,0.092,0.272,0.141
		c0.208,0.113,0.015,0.021-0.039-0.043c-0.088-0.152-0.178-0.307-0.267-0.459c0.001,0.004,0.003,0.008,0.003,0.012
		c0.035-0.266,0.07-0.533,0.105-0.801c-0.002,0.004-0.003,0.006-0.006,0.008c0.207-0.158,0.414-0.316,0.621-0.477
		c0.078-0.01,0.157-0.02,0.235-0.029c-0.337,0.023-0.748,0.174-0.896,0.514c-0.092,0.211-0.188,0.42-0.295,0.623
		c-0.044,0.086-0.095,0.17-0.147,0.25c-0.142,0.223,0.138-0.148-0.006,0c0.298-0.309,0.848-0.248,1.143,0.031
		c0.237,0.225,0.088,0.119,0.023-0.023c0.159,0.35,0.038,0.088,0.004,0.004c-0.058-0.141-0.113-0.289-0.188-0.424
		c-0.224-0.402-0.591-0.572-1.031-0.627c-0.563-0.07-1.039,0.525-1.039,1.039C30.935,250.018,31.412,250.367,31.974,250.438
		L31.974,250.438z"/>
</g>
<g>
	<path fill="#03496B" d="M16.888,336.685c-0.452,1.936-1.382,3.975-0.492,5.916c0.901,1.963,3.336,2.766,5.347,2.781
		c2.289,0.02,3.704,0.824,4.153,3.064c0.258,1.281,1.328,2.326,2.21,3.24c2.576,2.676,4.815,4.033,4.959,8.033
		c0.468-0.35,0.937-0.695,1.405-1.043c-0.854-0.475-1.75-0.861-2.604-1.336c-0.609-0.336-1.313,0.213-1.409,0.779
		c-0.951,5.678-6.324,13.455-0.282,18.162c2.303,1.795,5.806,2.135,8.613,2.434c3.125,0.334,6.079,0.695,9.158,1.322
		c2.002,0.406,3.815,0.898,5.406-0.645c1.256-1.219,0.658-2.457-0.551-3.463c-0.823-0.684-2.766-1.449-2.375-2.801
		c0.436-1.506,2.768-1.6,4.045-1.574c2.801,0.061,6.908,1.336,7.883,4.168c0.142,0.41,0.67,0.664,1.092,0.598
		c5.405-0.852,12.306-5.697,12.623-11.363c0.035-0.607-0.473-1.236-1.167-1.107c-2.112,0.385-4.203,0.725-6.354,0.854
		c0.387,0.283,0.776,0.564,1.163,0.844c-0.063-4.686,0.196-9.359,0.444-14.037c0.031-0.568-0.479-1.283-1.167-1.107
		c-2.407,0.615-4.407,1.691-6.407,3.109c0.551,0.305,1.1,0.609,1.649,0.914c0.222-3.359,2.37-9.541,6.979-7.83
		c0.584,0.217,1.378-0.115,1.41-0.779c0.211-4.463,0.399-8.91-0.412-13.34c-0.1-0.533-0.6-0.912-1.164-0.844
		c-7.367,0.906-15.936-1.389-18.896-8.639c-0.172-0.42-0.644-0.641-1.092-0.598c-2.506,0.256-4.846-0.033-7.278-0.631
		c-0.497-0.123-1.145,0.352-1.143,0.85c0.006,2.838-0.312,6.063-3.111,7.631c-2.713,1.52-6.558,0.598-9.374-0.172
		c-0.751-0.205-1.494,0.23-1.406,1.045c0.099,0.91,1.249,5.623,0.181,6.207c-1.667,0.916-5.839-0.91-7.6-1.188
		c-4.735-0.754-6.989,1.529-5.331,5.939c0.452,1.205,2.334,0.436,1.883-0.762c-1.778-4.732,3.482-3.291,6.294-2.598
		c1.562,0.389,3.645,1.043,5.256,0.527c3.161-1.008,1.586-6.186,1.346-8.396c-0.469,0.346-0.937,0.695-1.406,1.043
		c3.577,0.979,7.475,1.732,10.968,0.178c3.594-1.602,4.342-5.779,4.335-9.195c-0.382,0.281-0.763,0.564-1.144,0.848
		c2.615,0.645,5.153,0.904,7.83,0.633c-0.364-0.199-0.729-0.398-1.092-0.596c3.299,8.074,12.807,10.85,21.078,9.83
		c-0.389-0.281-0.776-0.563-1.164-0.844c0.781,4.256,0.609,8.521,0.406,12.811c0.469-0.26,0.938-0.52,1.408-0.779
		c-6.045-2.244-9.479,4.551-9.798,9.389c-0.057,0.852,0.905,1.441,1.647,0.914c1.684-1.193,3.393-2.197,5.445-2.721
		c-0.389-0.369-0.778-0.738-1.168-1.109c-0.258,4.855-0.504,9.703-0.438,14.566c0.008,0.566,0.667,0.873,1.164,0.844
		c2.151-0.131,4.242-0.467,6.355-0.855c-0.389-0.369-0.777-0.738-1.166-1.109c-0.268,4.752-6.354,8.953-10.889,9.67
		c0.363,0.197,0.727,0.396,1.092,0.596c-1.405-4.084-7.125-5.508-11.055-5.35c-3.272,0.129-6.867,3.596-3.646,6.354
		c0.78,0.67,1.736,1.178,2.451,1.914c0.834,0.855-2.343,0.471-2.354,0.471c-0.736-0.119-1.468-0.277-2.198-0.426
		c-2.814-0.572-5.533-0.898-8.398-1.166c-4.54-0.424-9.772-1.389-9.626-6.805c0.107-3.986,2.426-7.666,3.081-11.574
		c-0.469,0.26-0.94,0.52-1.41,0.781c0.855,0.473,1.751,0.859,2.605,1.334c0.76,0.42,1.429-0.395,1.405-1.045
		c-0.089-2.512-0.727-4.494-2.509-6.367c-0.751-0.789-1.629-1.475-2.444-2.201c-1.638-1.461-1.831-2.791-2.559-4.635
		c-0.83-2.1-2.47-2.83-4.692-2.848c-1.749-0.018-4.361-0.092-4.842-2.215c-0.277-1.225,0.603-3.064,0.878-4.24
		C19.212,335.704,17.174,335.456,16.888,336.685L16.888,336.685z"/>
	<path fill="#D3A205" d="M32.901,348.251c-0.034-0.125-0.041-0.133-0.021-0.029c0.004-0.148,0.003-0.168-0.002-0.061
		c-0.004,0.08-0.021,0.158-0.037,0.234c-0.054,0.26-0.068,0.518,0.045,0.771c0.204,0.457,0.659,0.643,1.146,0.629
		c0.275-0.008,0.571-0.16,0.814-0.271c0.916-0.43,0.749-1.723-0.28-1.891c-0.263-0.043,0.194,0.063-0.014,0
		c-0.091-0.029-0.183-0.059-0.273-0.09c-0.223-0.07-0.449-0.143-0.681-0.182c-0.392-0.064-0.808,0.09-1.049,0.391
		c-0.332,0.416-0.236,0.926,0.06,1.328c0.199,0.273,0.618,0.445,0.957,0.381c0.621-0.119,1.232-0.248,1.523-0.852
		c0.246-0.51-0.084-0.984-0.263-1.451c-0.194-0.508-0.854-0.73-1.347-0.529c-0.532,0.215-0.732,0.785-0.537,1.291
		c0.07,0.184,0.166,0.355,0.241,0.537c-0.055-0.125-0.073-0.254-0.053-0.389c0.11-0.188,0.219-0.375,0.327-0.563
		c0.176-0.088,0.214-0.111,0.114-0.068c-0.192,0.082,0.254-0.055-0.008,0.006c-0.098,0.023-0.196,0.039-0.295,0.059
		c0.319,0.127,0.639,0.252,0.957,0.379c0.054,0.203,0.106,0.406,0.159,0.607c-0.129,0.219-0.258,0.436-0.387,0.654
		c-0.668,0.084-0.869,0.146-0.602,0.184c0.102,0.023,0.069,0.014-0.097-0.025c0.09,0.025,0.179,0.057,0.268,0.086
		c0.247,0.08,0.495,0.162,0.75,0.205c-0.093-0.631-0.187-1.262-0.28-1.891c-0.097,0.045-0.196,0.09-0.295,0.133
		c-0.044,0.018-0.089,0.035-0.135,0.051c0.121-0.051,0.247-0.068,0.378-0.051c0.165,0.066,0.332,0.131,0.496,0.199
		c0.053,0.049,0.105,0.1,0.156,0.148c0.069,0.156,0.138,0.311,0.207,0.467c-0.025-0.092-0.033,0.324,0.013,0.102
		c0.017-0.088,0.039-0.176,0.051-0.266c0.052-0.348-0.016-0.668-0.122-1c-0.164-0.516-0.876-0.719-1.347-0.527
		C32.885,347.181,32.736,347.735,32.901,348.251L32.901,348.251z"/>
</g>
</svg>
