<?xml version="1.0" encoding="utf-8"?>
<!-- Generator: Adobe Illustrator 16.0.0, SVG Export Plug-In . SVG Version: 6.00 Build 0)  -->
<!DOCTYPE svg PUBLIC "-//W3C//DTD SVG 1.1//EN" "http://www.w3.org/Graphics/SVG/1.1/DTD/svg11.dtd">
<svg version="1.1" id="Calque_1" xmlns="http://www.w3.org/2000/svg" xmlns:xlink="http://www.w3.org/1999/xlink" x="0px" y="0px"
	 width="306.104px" height="61.543px" viewBox="0 0 306.104 61.543" enable-background="new 0 0 306.104 61.543"
	 xml:space="preserve">
<g>
	<defs>
		<rect id="SVGID_1_" width="306.104" height="61.543"/>
	</defs>
	<clipPath id="SVGID_2_">
		<use xlink:href="#SVGID_1_"  overflow="visible"/>
	</clipPath>
	<g clip-path="url(#SVGID_2_)">
		<path fill="#01496B" d="M0,29.034V0h5.972v23.975h11.655v5.06H0z"/>
		<path fill="#01496B" d="M49.438,29.034l-1.659-4.313H35.255l-1.659,4.313h-6.223L39.111,0h4.811l11.736,29.034H49.438z
			 M41.517,8.463l-4.356,11.28h8.709L41.517,8.463z"/>
		<path fill="#01496B" d="M93.153,14.517c0,3.029-0.66,5.646-1.98,7.852c-1.321,2.206-3.16,3.865-5.516,4.986
			c-2.358,1.121-5.112,1.68-8.264,1.68h-9.707V0h9.707c3.137,0,5.889,0.566,8.253,1.691c2.364,1.126,4.205,2.793,5.526,4.998
			C92.493,8.896,93.153,11.505,93.153,14.517z M87.098,14.558c0-1.545-0.248-2.932-0.746-4.146
			c-0.499-1.215-1.182-2.213-2.055-2.988c-0.87-0.77-1.89-1.361-3.058-1.761s-2.438-0.599-3.805-0.599h-3.775v18.911h3.775
			c2.833,0,5.152-0.815,6.956-2.446C86.195,19.894,87.098,17.574,87.098,14.558z"/>
		<path fill="#01496B" d="M112.396,20.575v8.459h-5.973V0h9.996c3.483,0,6.264,0.966,8.337,2.894c2.073,1.93,3.11,4.351,3.11,7.27
			c0,1.949-0.473,3.678-1.42,5.186c-0.948,1.504-2.271,2.654-3.971,3.44c2.985,1.867,4.686,4.989,5.102,9.372l0.081,0.873h-5.805
			l-0.084-0.787c-0.248-2.393-1.013-4.268-2.291-5.63c-1.279-1.362-2.935-2.042-4.967-2.042H112.396z M112.396,4.978v10.619h3.899
			c1.686,0,3.027-0.46,4.023-1.381c0.995-0.918,1.492-2.227,1.492-3.931c0-1.7-0.497-3.009-1.492-3.926
			c-0.996-0.921-2.338-1.382-4.023-1.382H112.396z"/>
	</g>
	<g clip-path="url(#SVGID_2_)">
		<path fill="#01496B" d="M153.664,29.034l-1.659-4.313h-12.523l-1.659,4.313h-6.224L143.338,0h4.811l11.736,29.034H153.664z
			 M145.743,8.463l-4.356,11.28h8.71L145.743,8.463z"/>
		<path fill="#01496B" d="M192.858,0l6.556,19.327L205.26,0h6.222l-9.662,29.034h-4.811l-6.556-19.658l-6.555,19.658h-4.811
			L169.426,0h6.222l5.846,19.327L188.049,0H192.858z"/>
	</g>
	<g clip-path="url(#SVGID_2_)">
		<path fill="#01496B" d="M218.118,29.034V0h17.831v5.063h-11.863v7.794h9.955v5.06h-9.955v6.058h12.238v5.06H218.118z"/>
		<path fill="#01496B" d="M267.34,28.753c-1.447,0.518-3.018,0.778-4.721,0.778c-1.7,0-3.27-0.261-4.717-0.778
			s-2.731-1.285-3.856-2.3c-1.13-1.019-2.011-2.356-2.654-4.015c-0.645-1.66-0.966-3.551-0.966-5.68V0h5.972v17.13
			c0,1.231,0.172,2.324,0.51,3.277c0.339,0.954,0.803,1.713,1.391,2.279c0.587,0.57,1.247,0.994,1.98,1.275
			c0.73,0.286,1.513,0.429,2.341,0.429c0.831,0,1.614-0.143,2.344-0.429c0.733-0.281,1.39-0.705,1.981-1.275
			c0.587-0.566,1.048-1.325,1.39-2.279c0.334-0.953,0.506-2.046,0.506-3.277V0h5.977v16.759c0,2.129-0.326,4.02-0.967,5.68
			c-0.644,1.658-1.528,2.996-2.653,4.015C270.066,27.468,268.782,28.235,267.34,28.753z"/>
	</g>
	<g clip-path="url(#SVGID_2_)">
		<path fill="#01496B" d="M285.179,25.218l12.858-20.154h-12.23V0h19.861v3.815l-12.857,20.159h13.273v5.06h-20.905V25.218z"/>
	</g>
	<g clip-path="url(#SVGID_2_)">
		<path fill="#D4A200" d="M32.599,40.581c0.687,0.262,1.378,0.66,2.075,1.215l-0.854,0.881c-0.585-0.439-1.154-0.766-1.706-0.971
			c-0.554-0.203-1.192-0.309-1.92-0.309c-0.917,0-1.773,0.244-2.57,0.732c-0.799,0.49-1.447,1.271-1.945,2.332
			c-0.497,1.068-0.746,2.414-0.746,4.045c0,2.412,0.459,4.223,1.374,5.43c0.917,1.199,2.197,1.793,3.84,1.793
			c1.264,0,2.401-0.277,3.412-0.848v-5.764h-3.176l-0.165-1.182h4.739v7.68c-1.517,0.881-3.143,1.328-4.882,1.328
			c-1.343,0-2.511-0.316-3.508-0.953c-0.995-0.629-1.765-1.574-2.309-2.838c-0.546-1.264-0.82-2.813-0.82-4.646
			c0-1.77,0.316-3.287,0.948-4.541c0.632-1.256,1.461-2.203,2.489-2.83c1.027-0.637,2.126-0.945,3.294-0.945
			C31.103,40.19,31.912,40.321,32.599,40.581z"/>
		<path fill="#D4A200" d="M45.078,44.168l-0.262,1.305c-0.346-0.098-0.709-0.146-1.088-0.146c-0.854,0-1.537,0.309-2.051,0.93
			c-0.514,0.611-0.936,1.58-1.268,2.885v7.543h-1.376V44.292h1.187l0.118,2.771c0.332-1.027,0.784-1.795,1.363-2.291
			c0.575-0.498,1.29-0.742,2.145-0.742C44.336,44.03,44.747,44.071,45.078,44.168z"/>
	</g>
	<g clip-path="url(#SVGID_2_)">
		<path fill="#D4A200" d="M55.351,55.331c0.167,0.285,0.431,0.496,0.795,0.645l-0.308,0.969c-0.568-0.129-1.007-0.35-1.316-0.668
			c-0.308-0.311-0.51-0.783-0.604-1.395c-0.901,1.369-2.189,2.063-3.862,2.063c-1.187,0-2.122-0.334-2.81-1.01
			c-0.687-0.67-1.031-1.566-1.031-2.691c0-1.279,0.455-2.266,1.364-2.959c0.906-0.693,2.168-1.045,3.778-1.045h2.371v-1.205
			c0-0.996-0.223-1.721-0.665-2.17c-0.442-0.447-1.176-0.676-2.203-0.676c-0.948,0-2.071,0.236-3.365,0.709l-0.354-1.043
			c1.39-0.555,2.692-0.824,3.909-0.824c2.703,0,4.053,1.305,4.053,3.93v5.977C55.103,54.581,55.186,55.045,55.351,55.331z
			 M53.729,53.602v-3.367h-2.156c-1.265,0-2.229,0.244-2.893,0.732c-0.663,0.49-0.995,1.225-0.995,2.211
			c0,0.848,0.229,1.508,0.688,1.965c0.458,0.457,1.099,0.684,1.92,0.684C51.809,55.827,52.954,55.086,53.729,53.602z"/>
		<path fill="#D4A200" d="M68.6,45.694c0.751,1.115,1.126,2.689,1.126,4.729c0,1.996-0.408,3.578-1.222,4.752
			c-0.813,1.184-1.979,1.77-3.495,1.77c-0.742,0-1.415-0.154-2.015-0.465c-0.601-0.309-1.106-0.725-1.516-1.246v6.115l-1.376,0.195
			V44.292h1.186l0.118,1.793c0.459-0.645,1.012-1.15,1.66-1.518c0.647-0.357,1.365-0.537,2.156-0.537
			C66.723,44.03,67.85,44.584,68.6,45.694z M67.354,54.434c0.602-0.906,0.901-2.242,0.901-4.012c0-3.506-1.099-5.26-3.294-5.26
			c-0.742,0-1.387,0.188-1.933,0.57c-0.544,0.375-1.063,0.898-1.551,1.566v6.588c0.395,0.596,0.868,1.068,1.42,1.395
			c0.555,0.334,1.17,0.496,1.85,0.496C65.885,55.778,66.755,55.331,67.354,54.434z"/>
		<path fill="#D4A200" d="M81.906,45.032c0.602,0.67,0.901,1.6,0.901,2.789v8.863h-1.374v-8.676c0-1.916-0.783-2.869-2.349-2.869
			c-0.789,0-1.487,0.219-2.098,0.652c-0.607,0.432-1.188,1.066-1.74,1.906v8.986h-1.376V39.235l1.376-0.162v7.271
			c1.104-1.541,2.473-2.314,4.099-2.314C80.453,44.03,81.305,44.364,81.906,45.032z"/>
		<path fill="#D4A200" d="M89.137,39.122c0.189,0.188,0.285,0.424,0.285,0.709s-0.096,0.521-0.285,0.709
			c-0.19,0.188-0.442,0.285-0.759,0.285c-0.3,0-0.544-0.098-0.733-0.285s-0.286-0.424-0.286-0.709s0.097-0.521,0.286-0.709
			s0.434-0.285,0.733-0.285C88.694,38.836,88.946,38.934,89.137,39.122z M89.089,56.684h-1.375V44.292h1.375V56.684z"/>
		<path fill="#D4A200" d="M99.257,44.372c0.63,0.229,1.247,0.57,1.847,1.027l-0.639,0.906c-0.57-0.4-1.106-0.686-1.612-0.873
			c-0.505-0.18-1.06-0.27-1.659-0.27c-0.821,0-1.485,0.188-1.991,0.57c-0.505,0.375-0.758,0.881-0.758,1.518
			c0,0.604,0.218,1.068,0.652,1.395c0.434,0.334,1.221,0.652,2.358,0.953c1.406,0.359,2.421,0.816,3.045,1.369
			c0.624,0.555,0.936,1.346,0.936,2.373c0,1.109-0.426,1.982-1.28,2.635c-0.852,0.643-1.918,0.969-3.198,0.969
			c-0.947,0-1.777-0.139-2.488-0.416c-0.712-0.277-1.359-0.668-1.945-1.174l0.761-0.881c0.553,0.449,1.117,0.775,1.694,0.988
			c0.576,0.211,1.227,0.316,1.954,0.316c0.917,0,1.655-0.203,2.216-0.627c0.561-0.416,0.842-0.994,0.842-1.736
			c0-0.506-0.096-0.922-0.285-1.24c-0.189-0.309-0.514-0.586-0.971-0.814c-0.458-0.229-1.131-0.465-2.016-0.701
			c-1.311-0.344-2.254-0.775-2.831-1.297s-0.864-1.223-0.864-2.088c0-0.619,0.182-1.174,0.544-1.67
			c0.363-0.498,0.856-0.889,1.482-1.166c0.623-0.27,1.322-0.408,2.097-0.408C97.919,44.03,98.623,44.143,99.257,44.372z"/>
		<path fill="#D4A200" d="M119.555,45.049c0.576,0.676,0.866,1.598,0.866,2.771v8.863h-1.376v-8.676
			c0-0.979-0.186-1.703-0.557-2.168s-0.889-0.701-1.554-0.701c-0.694,0-1.318,0.219-1.871,0.668
			c-0.554,0.439-1.09,1.068-1.612,1.891v8.986h-1.373v-8.676c0-0.979-0.186-1.703-0.557-2.168c-0.373-0.465-0.889-0.701-1.554-0.701
			c-0.711,0-1.343,0.219-1.896,0.668c-0.555,0.439-1.082,1.068-1.588,1.891v8.986h-1.376V44.292h1.187l0.118,2.078
			c0.489-0.727,1.054-1.297,1.694-1.713c0.64-0.424,1.347-0.627,2.121-0.627c0.789,0,1.449,0.211,1.979,0.637
			c0.528,0.424,0.889,1.035,1.078,1.826c1.091-1.648,2.394-2.463,3.91-2.463C118.192,44.03,118.978,44.364,119.555,45.049z"/>
		<path fill="#D4A200" d="M134.069,51.016h-8.271c0.079,1.615,0.463,2.805,1.149,3.588s1.592,1.174,2.713,1.174
			c0.648,0,1.221-0.098,1.719-0.293c0.497-0.195,1.039-0.514,1.624-0.938l0.641,0.881c-0.618,0.506-1.25,0.881-1.898,1.133
			c-0.647,0.254-1.365,0.383-2.156,0.383c-1.643,0-2.931-0.563-3.862-1.688c-0.932-1.117-1.398-2.674-1.398-4.664
			c0-1.313,0.202-2.461,0.605-3.447c0.401-0.988,0.979-1.754,1.729-2.301c0.75-0.545,1.624-0.814,2.619-0.814
			c1.58,0,2.78,0.529,3.604,1.598c0.819,1.068,1.231,2.527,1.231,4.395C134.116,50.374,134.1,50.7,134.069,51.016z M132.765,49.598
			c0-1.395-0.287-2.479-0.864-3.262c-0.577-0.781-1.433-1.174-2.572-1.174c-1.011,0-1.837,0.4-2.477,1.182
			c-0.64,0.791-0.999,1.998-1.078,3.605h6.991V49.598z"/>
		<path fill="#D4A200" d="M152.141,41.168c0.736,0.66,1.104,1.5,1.104,2.527c0,0.896-0.296,1.68-0.889,2.348
			c-0.594,0.66-1.505,1.328-2.738,2.014l4.857,4.549c0.695-1.426,1.217-2.926,1.565-4.508l1.303,0.383
			c-0.506,1.9-1.176,3.547-2.014,4.957l2.939,2.699l-1.02,0.807l-2.653-2.486c-0.682,0.799-1.443,1.418-2.287,1.844
			c-0.847,0.432-1.854,0.643-3.023,0.643c-0.932,0-1.777-0.178-2.535-0.537c-0.759-0.352-1.355-0.857-1.79-1.518
			c-0.435-0.652-0.652-1.41-0.652-2.258c0-1.012,0.285-1.883,0.854-2.625c0.568-0.734,1.423-1.428,2.56-2.096
			c-0.87-0.814-1.485-1.516-1.849-2.096c-0.364-0.578-0.546-1.256-0.546-2.029c0-1.035,0.364-1.9,1.09-2.576
			c0.729-0.686,1.692-1.02,2.893-1.02C150.462,40.19,151.407,40.516,152.141,41.168z M146.43,50.463
			c-0.467,0.619-0.699,1.328-0.699,2.119c0,0.963,0.345,1.744,1.031,2.332c0.688,0.596,1.567,0.889,2.642,0.889
			c0.948,0,1.762-0.18,2.442-0.529c0.679-0.359,1.311-0.889,1.896-1.6l-5.189-5.006C147.604,49.239,146.896,49.834,146.43,50.463z
			 M147.414,41.975c-0.475,0.48-0.711,1.076-0.711,1.793c0,0.596,0.145,1.143,0.438,1.623c0.292,0.48,0.849,1.117,1.672,1.908
			c1.058-0.588,1.837-1.15,2.334-1.695c0.497-0.547,0.746-1.166,0.746-1.859c0-0.775-0.24-1.387-0.724-1.826
			c-0.481-0.441-1.101-0.67-1.859-0.67C148.519,41.249,147.887,41.495,147.414,41.975z"/>
		<path fill="#D4A200" d="M170.331,39.122c0.188,0.188,0.285,0.424,0.285,0.709s-0.098,0.521-0.285,0.709
			c-0.191,0.188-0.444,0.285-0.758,0.285c-0.302,0-0.547-0.098-0.734-0.285c-0.191-0.188-0.285-0.424-0.285-0.709
			s0.094-0.521,0.285-0.709c0.188-0.188,0.433-0.285,0.734-0.285C169.887,38.836,170.14,38.934,170.331,39.122z M170.282,56.684
			h-1.378V44.292h1.378V56.684z"/>
		<path fill="#D4A200" d="M175.77,56.35c-0.388-0.393-0.579-0.979-0.579-1.754V39.235l1.374-0.162v15.475
			c0,0.807,0.33,1.207,0.994,1.207c0.331,0,0.616-0.049,0.853-0.164l0.383,1.02c-0.444,0.221-0.921,0.334-1.427,0.334
			C176.69,56.944,176.156,56.741,175.77,56.35z"/>
		<path fill="#D4A200" d="M182.5,56.35c-0.388-0.393-0.583-0.979-0.583-1.754V39.235l1.378-0.162v15.475
			c0,0.807,0.33,1.207,0.995,1.207c0.334,0,0.615-0.049,0.855-0.164l0.375,1.02c-0.44,0.221-0.913,0.334-1.418,0.334
			C183.421,56.944,182.888,56.741,182.5,56.35z"/>
		<path fill="#D4A200" d="M197.466,56.684h-1.183l-0.073-2.211c-0.979,1.648-2.332,2.471-4.053,2.471
			c-1.121,0-1.989-0.326-2.593-0.986c-0.611-0.652-0.913-1.59-0.913-2.805v-8.861h1.374v8.715c0,0.963,0.2,1.672,0.604,2.119
			c0.403,0.457,1.015,0.678,1.839,0.678c1.435,0,2.646-0.84,3.624-2.535v-8.977h1.374V56.684z"/>
		<path fill="#D4A200" d="M207.633,44.372c0.632,0.229,1.247,0.57,1.851,1.027l-0.64,0.906c-0.571-0.4-1.105-0.686-1.61-0.873
			c-0.506-0.18-1.061-0.27-1.663-0.27c-0.82,0-1.484,0.188-1.99,0.57c-0.505,0.375-0.758,0.881-0.758,1.518
			c0,0.604,0.22,1.068,0.652,1.395c0.432,0.334,1.223,0.652,2.356,0.953c1.41,0.359,2.421,0.816,3.049,1.369
			c0.62,0.555,0.934,1.346,0.934,2.373c0,1.109-0.428,1.982-1.28,2.635c-0.852,0.643-1.92,0.969-3.2,0.969
			c-0.945,0-1.777-0.139-2.486-0.416s-1.361-0.668-1.944-1.174l0.762-0.881c0.551,0.449,1.117,0.775,1.692,0.988
			c0.574,0.211,1.227,0.316,1.952,0.316c0.922,0,1.655-0.203,2.218-0.627c0.563-0.416,0.84-0.994,0.84-1.736
			c0-0.506-0.094-0.922-0.285-1.24c-0.188-0.309-0.514-0.586-0.971-0.814c-0.456-0.229-1.129-0.465-2.014-0.701
			c-1.313-0.344-2.254-0.775-2.829-1.297c-0.579-0.521-0.864-1.223-0.864-2.088c0-0.619,0.18-1.174,0.542-1.67
			c0.363-0.498,0.856-0.889,1.48-1.166c0.628-0.27,1.324-0.408,2.1-0.408C206.296,44.03,207.001,44.143,207.633,44.372z"/>
		<path fill="#D4A200" d="M219.129,56.163c-0.791,0.521-1.659,0.781-2.609,0.781c-0.945,0-1.688-0.285-2.226-0.84
			c-0.538-0.563-0.808-1.377-0.808-2.43v-8.275h-2.087v-1.107h2.087v-2.969l1.378-0.164v3.133h3.196l-0.163,1.107h-3.033v8.203
			c0,0.725,0.147,1.264,0.449,1.623c0.301,0.357,0.758,0.529,1.373,0.529c0.648,0,1.28-0.188,1.896-0.563L219.129,56.163z"/>
		<path fill="#D4A200" d="M227.608,44.168l-0.261,1.305c-0.343-0.098-0.71-0.146-1.085-0.146c-0.855,0-1.541,0.309-2.055,0.93
			c-0.514,0.611-0.934,1.58-1.264,2.885v7.543h-1.378V44.292h1.187l0.118,2.771c0.334-1.027,0.783-1.795,1.361-2.291
			c0.579-0.498,1.293-0.742,2.145-0.742C226.866,44.03,227.282,44.071,227.608,44.168z"/>
	</g>
	<g clip-path="url(#SVGID_2_)">
		<path fill="#D4A200" d="M237.89,55.331c0.163,0.285,0.428,0.496,0.791,0.645l-0.306,0.969c-0.566-0.129-1.007-0.35-1.317-0.668
			c-0.31-0.311-0.509-0.783-0.603-1.395c-0.901,1.369-2.189,2.063-3.865,2.063c-1.182,0-2.12-0.334-2.805-1.01
			c-0.688-0.67-1.035-1.566-1.035-2.691c0-1.279,0.456-2.266,1.365-2.959s2.169-1.045,3.779-1.045h2.373v-1.205
			c0-0.996-0.225-1.721-0.669-2.17c-0.44-0.447-1.174-0.676-2.201-0.676c-0.946,0-2.071,0.236-3.367,0.709l-0.351-1.043
			c1.386-0.555,2.69-0.824,3.905-0.824c2.707,0,4.052,1.305,4.052,3.93v5.977C237.637,54.581,237.723,55.045,237.89,55.331z
			 M236.268,53.602v-3.367h-2.161c-1.264,0-2.226,0.244-2.891,0.732c-0.664,0.49-0.994,1.225-0.994,2.211
			c0,0.848,0.228,1.508,0.688,1.965c0.457,0.457,1.097,0.684,1.916,0.684C234.343,55.827,235.492,55.086,236.268,53.602z"/>
		<path fill="#D4A200" d="M248.281,56.163c-0.791,0.521-1.659,0.781-2.605,0.781c-0.949,0-1.695-0.285-2.229-0.84
			c-0.538-0.563-0.808-1.377-0.808-2.43v-8.275h-2.083v-1.107h2.083v-2.969l1.374-0.164v3.133h3.204l-0.171,1.107h-3.033v8.203
			c0,0.725,0.151,1.264,0.452,1.623c0.298,0.357,0.759,0.529,1.374,0.529c0.648,0,1.28-0.188,1.896-0.563L248.281,56.163z"/>
		<path fill="#D4A200" d="M252.142,39.122c0.191,0.188,0.285,0.424,0.285,0.709s-0.094,0.521-0.285,0.709
			c-0.188,0.188-0.44,0.285-0.758,0.285c-0.298,0-0.543-0.098-0.734-0.285c-0.188-0.188-0.285-0.424-0.285-0.709
			s0.098-0.521,0.285-0.709c0.191-0.188,0.437-0.285,0.734-0.285C251.701,38.836,251.954,38.934,252.142,39.122z M252.097,56.684
			h-1.374V44.292h1.374V56.684z"/>
		<path fill="#D4A200" d="M265.236,45.717c0.925,1.133,1.386,2.707,1.386,4.729c0,2.006-0.469,3.596-1.411,4.754
			c-0.938,1.166-2.222,1.744-3.848,1.744c-1.647,0-2.928-0.57-3.853-1.719c-0.926-1.143-1.386-2.725-1.386-4.73
			c0-1.313,0.216-2.453,0.64-3.432c0.424-0.986,1.035-1.736,1.826-2.26c0.791-0.512,1.721-0.773,2.797-0.773
			C263.026,44.03,264.314,44.592,265.236,45.717z M258.591,46.542c-0.664,0.896-0.995,2.217-0.995,3.953
			c0,1.721,0.326,3.033,0.983,3.939c0.656,0.896,1.585,1.344,2.784,1.344c1.198,0,2.136-0.447,2.809-1.344
			c0.673-0.906,1.007-2.234,1.007-3.988c0-1.721-0.326-3.023-0.986-3.922c-0.652-0.889-1.59-1.336-2.805-1.336
			C260.185,45.188,259.251,45.635,258.591,46.542z"/>
		<path fill="#D4A200" d="M278.697,45.024c0.595,0.66,0.889,1.59,0.889,2.797v8.863h-1.37v-8.676c0-0.994-0.199-1.721-0.595-2.186
			c-0.396-0.455-0.979-0.684-1.753-0.684c-0.791,0-1.492,0.219-2.1,0.652c-0.607,0.432-1.187,1.066-1.741,1.906v8.986h-1.378V44.292
			h1.19l0.114,2.104c1.125-1.582,2.512-2.365,4.175-2.365C277.25,44.03,278.105,44.356,278.697,45.024z"/>
	</g>
</g>
</svg>
