<?xml version="1.0" encoding="utf-8"?>
<!-- Generator: Adobe Illustrator 16.0.0, SVG Export Plug-In . SVG Version: 6.00 Build 0)  -->
<!DOCTYPE svg PUBLIC "-//W3C//DTD SVG 1.1//EN" "http://www.w3.org/Graphics/SVG/1.1/DTD/svg11.dtd">
<svg version="1.1" id="Calque_1" xmlns="http://www.w3.org/2000/svg" xmlns:xlink="http://www.w3.org/1999/xlink" x="0px" y="0px"
	 width="60.25px" height="60.193px" viewBox="0 0 60.25 60.193" enable-background="new 0 0 60.25 60.193" xml:space="preserve">
<path fill="#01496B" d="M60.034,24.417C58.177,9.733,43.611,0.789,29.877,0.045C16.353-0.687,4.255,7.488,0.745,20.633
	c-3.682,13.789,6.754,34.07,20.99,37.875c0.289,1.358,2.515,1.743,2.905,0.112c1.679-7.014,0.258-14.387,0.354-21.511
	c0.059-4.355,1.041-7.896,3.833-11.242c3.762-4.507,9.446-5.036,12.771,0.303c2.626,4.218-3.425,4.892-6.148,6.389
	c-3.254,1.79-3.894,5.053-3.131,8.443c0.175,0.777,1.092,1.283,1.845,1.047c5.343-1.669,2.759,4.895-1.908,4.604
	c-0.827-0.052-1.486,0.722-1.5,1.5c-0.056,3.219-0.179,6.558-1.262,9.616c-0.144,0.197-0.221,0.432-0.231,0.68
	c-0.271,0.869,0.308,1.474,1.041,1.631c0.246,0.099,0.526,0.141,0.84,0.09C47.612,57.472,62.208,41.607,60.034,24.417z
	 M32.937,56.721c0.554-2.306,0.72-4.743,0.786-7.106c7.481-0.834,8.76-11.771,1.329-10.834c-0.04-4.785,6.395-4.416,9.327-7.505
	c3.681-3.875-2.26-9.995-5.504-11.549c-6.243-2.99-12.548,3.456-15.149,8.417c-4.281,8.167-0.468,18.437-1.578,27.367
	C9.401,51.751,0.88,33.666,3.638,21.43C6.312,9.566,17.315,3.089,28.884,3.021c12.593-0.074,24.854,7.967,27.95,20.433
	C60.594,38.594,46.853,53.064,32.937,56.721z"/>
</svg>
