<?xml version="1.0" encoding="utf-8"?>
<!-- Generator: Adobe Illustrator 16.0.0, SVG Export Plug-In . SVG Version: 6.00 Build 0)  -->
<!DOCTYPE svg PUBLIC "-//W3C//DTD SVG 1.1//EN" "http://www.w3.org/Graphics/SVG/1.1/DTD/svg11.dtd">
<svg version="1.1" id="Calque_1" xmlns="http://www.w3.org/2000/svg" xmlns:xlink="http://www.w3.org/1999/xlink" x="0px" y="0px"
	 width="57.603px" height="61.091px" viewBox="0 0 57.603 61.091" enable-background="new 0 0 57.603 61.091" xml:space="preserve">
<path fill="#01496B" d="M57.576,26.624C57.017,12.331,45.79,1.532,31.873,0.134C16.81-1.378,4.339,10.091,0.897,24.081
	c-3.633,14.766,4.026,29.275,18.257,34.311c0.866,1.259,3.216,0.464,2.68-1.22c-2.051-6.441-0.914-13.94,0.679-20.345
	c1.668-6.702,6.854-18.224,15.891-14.259c1.599,0.701,5.413,5.05,3.018,6.664c-1.276,0.86-2.742,1.363-3.968,2.324
	c-2.116,1.658-4.831,2.525-6.405,4.782c-1.021,1.466-0.697,4.982,0.125,6.385c0.219,0.375,0.73,0.84,1.168,0.926
	c0.278,0.063,0.56,0.11,0.844,0.141c2.329,0.051,0.535,2.474-0.821,2.268c-0.947-0.145-1.897,0.385-1.898,1.446
	c-0.003,3.535-0.048,7.053-0.407,10.566c-0.036,0.004-0.07,0.011-0.106,0.014c-1.909,0.177-1.927,3.179,0,3
	C46.943,59.509,58.219,43.038,57.576,26.624z M33.105,57.564c0.265-2.828,0.338-5.659,0.352-8.501
	c2.497-0.071,5.041-1.084,5.041-4.077c0-1.407-0.812-2.931-2.029-3.644c-2.025-1.188-3.47,0.436-2.927-3.209
	c0.229-1.542,5.48-4.062,6.732-4.866c1.342-0.862,3.556-1.427,4.385-2.94c1.732-3.164-0.988-7.944-3.758-9.719
	c-8.328-5.336-16.086,2.16-19.279,9.494c-3.101,7.121-4.936,16.656-3.462,24.694C-7.133,43.88,2.133,3.384,29.833,3.044
	c12.144-0.149,22.014,8.781,24.37,20.388C57.121,37.808,47.382,54.221,33.105,57.564z"/>
</svg>
