<?xml version="1.0" encoding="utf-8"?>
<!-- Generator: Adobe Illustrator 16.0.0, SVG Export Plug-In . SVG Version: 6.00 Build 0)  -->
<!DOCTYPE svg PUBLIC "-//W3C//DTD SVG 1.1//EN" "http://www.w3.org/Graphics/SVG/1.1/DTD/svg11.dtd">
<svg version="1.1" id="Calque_1" xmlns="http://www.w3.org/2000/svg" xmlns:xlink="http://www.w3.org/1999/xlink" x="0px" y="0px"
	 width="60.015px" height="60.596px" viewBox="0 0 60.015 60.596" enable-background="new 0 0 60.015 60.596" xml:space="preserve">
<path fill="#01496B" d="M59.838,27.046C58.303,13.052,47.583,1.283,33.461,0.094C20.153-1.026,7.702,7.964,2.378,19.731
	C-5.069,36.192,6.1,51.825,20.312,59.865c0.986,0.559,1.908-0.099,2.17-0.93c0.835,0.218,1.96-0.24,2.101-1.371
	c1.354-10.879-3.049-40.138,16.874-33.786c4.199,1.34,7.072,7.65,2.598,10.597c-1.785,1.175-4.994,0.194-6.967,0.05
	c-5.014-0.369-5.168,4.169-4.377,7.934c0.176,0.84,1.084,1.202,1.844,1.048c2.789-0.565,5.451,2.251,1.633,2.659
	c-0.895,0.096-1.914,0.2-2.588,0.875c-2.496,2.495-2.324,8.033-3.406,11.231c-0.482,1.425,1.15,2.208,2.195,1.642
	c0.281,0.568,0.873,0.955,1.664,0.707C48.989,55.826,61.668,43.754,59.838,27.046z M33.42,57.572
	c0.586-2.998,1.209-8.341,3.475-8.583c1.885-0.201,3.303-0.746,4.379-2.335c2.834-4.185-2.369-6.171-5.91-6.257
	c-0.279-1.537-0.281-3.009,1.723-2.973c1.422,0.025,2.84,0.319,4.26,0.399c2.676,0.15,4.791-0.853,6.4-2.943
	c4.855-6.316-1.404-13.093-7.445-14.538C19.112,15.273,22.95,45.148,21.625,57.158C8.284,49.525-1.507,35.56,5.45,20.182
	C10.174,9.74,21.069,2.954,32.446,3.048c13.033,0.107,21.738,11.149,24.23,23.045C59.917,41.561,46.803,53.303,33.42,57.572z"/>
</svg>
