<?xml version="1.0" encoding="utf-8"?>
<!-- Generator: Adobe Illustrator 16.0.0, SVG Export Plug-In . SVG Version: 6.00 Build 0)  -->
<!DOCTYPE svg PUBLIC "-//W3C//DTD SVG 1.1//EN" "http://www.w3.org/Graphics/SVG/1.1/DTD/svg11.dtd">
<svg version="1.1" id="Calque_1" xmlns="http://www.w3.org/2000/svg" xmlns:xlink="http://www.w3.org/1999/xlink" x="0px" y="0px"
	 width="56.375px" height="43.605px" viewBox="0 0 56.375 43.605" enable-background="new 0 0 56.375 43.605" xml:space="preserve">
<path fill="#D4A200" d="M54.812,4.595c0.233-0.367,0.293-0.806,0.161-1.238c-0.126-0.414-0.414-0.76-0.769-0.944
	c-0.218-0.651-0.681-1.036-1.273-1.06C43.666,0.998,34.594,0.93,26.942,0.912l-4.037-0.01c-2.683,0-5.847,0.025-8.971,0.21
	C12.527,1.195,10.932,1.29,9.387,1.29c-2.419,0-4.391-0.233-6.186-0.733C2.902,0.157,2.356-0.028,1.838,0.114l-0.085-0.03
	C0.981-0.211,0.218,0.304,0.053,1.2C-0.07,1.864,0.166,2.485,0.64,2.82c-0.5,6.588,0.167,13.207,0.814,19.611
	c0.459,4.549,0.933,9.249,0.98,13.883c-0.48,0.104-0.96,0.214-1.438,0.336c-0.684,0.173-1.078,0.812-0.981,1.591
	c0.115,0.925,0.873,1.539,1.684,1.339c0.231-0.059,0.463-0.115,0.695-0.17c-0.033,1.01-0.08,1.874-0.145,2.68
	c-0.046,0.565,0.161,0.918,0.342,1.115c0.238,0.258,0.569,0.4,0.932,0.4c0.657,0,1.362-0.493,1.438-1.434
	c0.081-0.993,0.133-2.06,0.164-3.328c3.73-0.668,7.764-0.98,12.649-0.98c3.521,0,7.12,0.163,10.601,0.32
	c3.491,0.158,7.103,0.321,10.646,0.321c0,0,0,0,0.001,0c3.446,0,6.478-0.156,9.268-0.477c4.875-0.561,7.521-4.125,7.862-10.594
	C56.506,20.719,56.672,12.076,54.812,4.595z M36.965,17.204c-1.215,0.966-2.426,2.097-3.596,3.191
	c-2.207,2.063-4.489,4.195-6.967,5.395c-1.078,0.528-2.923-1.395-3.957-2.497c-0.216-0.23-0.412-0.438-0.581-0.607l-0.81-0.813
	c-1.222-1.228-2.486-2.496-3.816-3.665C12.578,14.11,7.76,9.638,4.295,3.9C5.833,4.185,7.5,4.319,9.448,4.319
	c0.831,0,1.665-0.049,2.501-0.084c3.413-0.148,7.924-0.342,12.554-0.342h0.178c7.822,0,17.04,0.084,26.479,0.408
	C46.941,8.733,42.289,12.978,36.965,17.204z M14.242,19.403c1.983,1.803,4.025,3.755,6.244,5.966l0.194,0.194
	c1.432,1.433,3.055,3.057,5.058,3.354c1.578,0.242,3.183-1.068,4.436-2.1l0.462-0.377c1.111-0.888,2.183-1.869,3.218-2.818
	c0.931-0.853,1.893-1.733,2.871-2.535c5.479-4.479,10.817-8.933,15.816-14.065c1.024,5.292,0.971,10.925,0.919,16.382l-0.019,2.222
	c-0.017,2.948-0.038,6.618-2.48,8.434c-1.622,1.206-3.968,1.173-6.031,1.136c-0.327-0.005-0.655,0.011-1.024-0.01
	c-2.115,0.005-4.228,0.026-6.338,0.049c-2.373,0.024-4.745,0.049-7.118,0.049c-2.903,0-5.329-0.036-7.634-0.115
	c-1.923-0.065-4.195-0.133-6.472-0.133c-4.333,0-7.912,0.245-11.202,0.77c-0.075-4.514-0.534-9.068-0.978-13.479
	c-0.494-4.902-1.003-9.954-0.984-14.965C6.436,12.134,10.569,16.059,14.242,19.403z"/>
</svg>
