<?xml version="1.0" encoding="utf-8"?>
<!-- Generator: Adobe Illustrator 16.0.0, SVG Export Plug-In . SVG Version: 6.00 Build 0)  -->
<!DOCTYPE svg PUBLIC "-//W3C//DTD SVG 1.1//EN" "http://www.w3.org/Graphics/SVG/1.1/DTD/svg11.dtd">
<svg version="1.1" id="Calque_1" xmlns="http://www.w3.org/2000/svg" xmlns:xlink="http://www.w3.org/1999/xlink" x="0px" y="0px"
	 width="52.752px" height="38.27px" viewBox="0 0 52.752 38.27" enable-background="new 0 0 52.752 38.27" xml:space="preserve">
<path fill="#D4A200" d="M51.581,3.132c0.033-0.22,0.017-0.429-0.05-0.626l-0.06-0.174c-0.262-0.773-0.685-0.995-0.994-1.044
	l-0.383-0.062c-0.113-0.017-0.219-0.021-0.324-0.011c-1.354-0.923-3.067-1.326-5.074-1.19c-1.581,0.109-3.156,0.415-4.681,0.711
	c-1.401,0.272-2.852,0.554-4.28,0.675l-1.426,0.121c-2.992,0.255-6.088,0.519-9.133,0.712C22.223,2.433,19.76,2.52,17.427,2.52
	c-5.188,0-9.697-0.461-13.777-1.408C3.304,0.709,2.795,0.586,2.339,0.791C1.653,0.61,0.99,1.015,0.741,1.759
	c-0.18,0.54-0.102,1.097,0.188,1.485c-1.28,5.142-0.989,10.612-0.58,15.781c0.125,1.577,0.275,3.149,0.425,4.723
	c0.148,1.551,0.295,3.103,0.419,4.657c0.031,0.388,0.076,0.812,0.124,1.259c0.189,1.77,0.424,3.973-0.155,5.344
	C0.939,35.537,1,36.188,1.316,36.664c0.333,0.504,0.913,0.704,1.453,0.5c1.883-0.713,4.013-1.059,6.513-1.059
	c2.72,0,5.561,0.406,8.309,0.801c2.612,0.374,5.313,0.761,7.841,0.779c2.341,0.016,4.743,0.154,7.066,0.289
	c2.504,0.145,5.094,0.295,7.64,0.295c0.001,0,0,0,0.001,0c4.537,0,8.203-0.49,11.535-1.543c0.525-0.166,1.049-0.791,0.976-1.508
	c-0.769-7.534-0.751-15.864,0.058-26.216C52.891,6.635,52.512,4.661,51.581,3.132z M3.718,25.089
	c-0.146-1.059-0.285-2.062-0.371-2.959l-0.054-0.565C2.78,16.182,2.25,10.627,3.257,5.389c2.197,2.927,4.63,5.644,6.99,8.278
	c3.902,4.357,7.938,8.863,10.885,14.323c0.331,0.613,1.012,0.912,1.583,0.697c6.366-2.377,11.594-7.029,15.436-10.817
	c2.555-2.517,5.095-5.121,7.479-7.573c1.246-1.282,2.366-2.729,3.391-4.101c0.184-0.244,0.395-0.458,0.622-0.666
	c0.452,1.559,0.349,3.58,0.194,5.23c-0.71,7.604-0.712,15.671-0.007,23.356c-2.918,0.793-6.124,1.162-10.045,1.162
	c-2.608,0-5.274-0.162-7.854-0.318c-2.418-0.146-4.918-0.299-7.356-0.316c-2.434-0.017-4.916-0.367-7.542-0.74
	c-2.682-0.379-5.454-0.771-8.159-0.771c-1.694,0-3.218,0.152-4.634,0.466C4.525,30.93,4.098,27.842,3.718,25.089z M47.624,3.5
	c-0.734,0.687-1.369,1.53-1.982,2.344c-0.393,0.522-0.8,1.061-1.217,1.537c-1.229,1.399-2.576,2.715-3.881,3.988
	c-0.955,0.932-1.943,1.896-2.883,2.892c-5.185,5.495-10.026,9.144-14.787,11.14c-2.983-5.172-6.846-9.507-10.583-13.701
	c-2.004-2.249-4.067-4.635-5.98-7.063C9.765,5.21,13.482,5.42,17.626,5.42c0.001,0,0.001,0,0.002,0
	c5.448,0,10.977-0.414,16.324-0.882c1.532-0.135,3.061-0.234,4.585-0.356c1.197-0.097,2.371-0.333,3.508-0.581
	c1.457-0.316,2.834-0.607,4.275-0.607c0.588,0,1.094,0.097,1.531,0.284C47.776,3.351,47.699,3.427,47.624,3.5z"/>
</svg>
