<?xml version="1.0" encoding="utf-8"?>
<!-- Generator: Adobe Illustrator 16.0.0, SVG Export Plug-In . SVG Version: 6.00 Build 0)  -->
<!DOCTYPE svg PUBLIC "-//W3C//DTD SVG 1.1//EN" "http://www.w3.org/Graphics/SVG/1.1/DTD/svg11.dtd">
<svg version="1.1" id="Calque_1" xmlns="http://www.w3.org/2000/svg" xmlns:xlink="http://www.w3.org/1999/xlink" x="0px" y="0px"
	 width="54.727px" height="52.955px" viewBox="0 0 54.727 52.955" enable-background="new 0 0 54.727 52.955" xml:space="preserve">
<g>
	<path fill="#D4A200" d="M0.783,11.378c2.433,11.985-6.942,32.067,7.473,38.917c7.13,3.388,17.547,2.673,25.228,2.419
		c7.214-0.239,16.144-1.351,19.124-8.991c3.157-8.095,2.197-17.493,0.889-25.881C52.178,9.397,48.149,3.133,39.559,1.069
		c-7.939-1.907-17.33-0.909-25.332,0.257C6.768,2.413-0.117,6.112,0.227,14.503c0.079,1.928,3.079,1.935,3,0
		C2.866,5.707,12.264,4.365,19.114,3.752c7.068-0.632,14.849-1.257,21.73,0.766c8.468,2.49,9.654,11.847,10.432,19.336
		c0.715,6.892,1.529,17.122-3.912,22.401c-4.823,4.678-15.443,3.637-21.546,3.455c-6.567-0.195-15.194,0.346-20.043-4.836
		c-3.921-4.189-2.648-11.855-2.157-16.986c0.554-5.782,1.226-11.556,0.058-17.308C3.291,8.686,0.4,9.49,0.783,11.378L0.783,11.378z"
		/>
	<path fill="#D4A200" d="M26.39,19.546c-7.99-0.314-13,8.996-9.155,15.65c2.403,4.16,6.95,5.27,10.828,2.395
		c3.596-2.665,6.02-7.334,6.172-11.799c0.179-5.188-4.156-7.586-8.852-7.252c-1.917,0.137-1.931,3.137,0,3
		c2.975-0.212,5.715,0.546,5.852,3.929c0.122,3.016-1.517,6.162-3.469,8.357c-1.721,1.938-4.396,3.506-6.657,1.487
		c-4.899-4.374-1.201-13.021,5.281-12.767C28.325,22.623,28.318,19.622,26.39,19.546L26.39,19.546z"/>
	<path fill="#D4A200" d="M31.434,14c0.082,3.558,2.444,5.969,6.064,5.4c2.637-0.414,5.227-2.897,4.416-5.711
		c-0.658-2.282-3.072-3.527-5.262-3.796c-2.778-0.342-4.901,1.724-5.668,4.212c-0.572,1.854,2.324,2.641,2.893,0.798
		c0.393-1.273,1.184-2.032,2.406-2.033c0.936,0,2.071,0.588,2.543,1.266c0.226,0.324,0.268,0.676,0.25,0.769
		c-0.086,0.429-0.611,0.874-1.123,1.188c-0.791,0.487-1.91,0.633-2.717,0.143C34.55,15.815,34.45,14.702,34.434,14
		C34.389,12.068,31.389,12.064,31.434,14L31.434,14z"/>
</g>
</svg>
