<?xml version="1.0" encoding="utf-8"?>
<!-- Generator: Adobe Illustrator 16.0.0, SVG Export Plug-In . SVG Version: 6.00 Build 0)  -->
<!DOCTYPE svg PUBLIC "-//W3C//DTD SVG 1.1//EN" "http://www.w3.org/Graphics/SVG/1.1/DTD/svg11.dtd">
<svg version="1.1" id="Calque_1" xmlns="http://www.w3.org/2000/svg" xmlns:xlink="http://www.w3.org/1999/xlink" x="0px" y="0px"
	 width="56.381px" height="54.313px" viewBox="0 0 56.381 54.313" enable-background="new 0 0 56.381 54.313" xml:space="preserve">
<g>
	<path fill="#D4A200" d="M3.84,7.216C1.712,20.079-5.753,43.422,8.603,51.899c8.622,5.092,20.512,0.78,29.568-0.723
		c7.689-1.275,14.227-3.819,16.632-11.8c2.235-7.416,2.063-17.65-0.302-25.032C52.02,6.595,44.955,2.918,37.435,1.423
		C28.627-0.328,3.774-2.836,2.429,10.329c-0.197,1.925,2.805,1.905,3,0C6.056,4.2,15.861,3.761,20.394,3.5
		c5.807-0.335,11.891-0.049,17.603,1.086C45.05,5.988,50.251,9.993,52.162,17.01c1.832,6.731,1.42,16.027-0.572,22.635
		c-2.152,7.141-10.59,8.081-16.834,9.063c-8.45,1.327-19.336,5.395-26.761-0.883c-5.259-4.446-4.878-13.287-4.458-19.453
		c0.468-6.867,2.077-13.585,3.197-20.357C7.046,6.121,4.155,5.311,3.84,7.216L3.84,7.216z"/>
	<path fill="#D4A200" d="M23.894,18.839c-7.296,2.606-10.827,11.879-4.735,17.683c4.456,4.246,13.185,4.185,16.743-1.052
		c2.889-4.251,1.758-10.766-1.041-14.737c-3.486-4.945-9.057-4.556-13.438-1.055c-1.512,1.207,0.626,3.315,2.121,2.121
		c7.276-5.813,12.509,4.104,10.499,10.642c-1.396,4.543-6.396,4.415-10.162,3.37c-7.574-2.101-5.316-11.891,0.812-14.079
		C26.5,21.086,25.721,18.187,23.894,18.839L23.894,18.839z"/>
	<path fill="#D4A200" d="M35.065,14.349c0.411,2.276,2.44,3.926,4.747,3.895c2.592-0.033,4.357-2.581,4.158-5.028
		c-0.396-4.869-7.227-2.341-8.754,0.431c-0.935,1.695,1.656,3.209,2.59,1.515c0.296-0.537,1.184-1.089,1.96-1.451
		c0.35-0.163,0.814-0.265,1.075-0.281c0.529-0.033,0.247,0.204,0.106-0.17c0.272,0.724-0.294,1.912-1.136,1.985
		c-1.051,0.092-1.685-0.752-1.854-1.692C37.615,11.649,34.723,12.458,35.065,14.349L35.065,14.349z"/>
</g>
</svg>
